<?xml version="1.0" encoding="UTF-8" standalone="no"?>
<!DOCTYPE svg PUBLIC "-//W3C//DTD SVG 1.1//EN"
 "http://www.w3.org/Graphics/SVG/1.1/DTD/svg11.dtd">
<!-- Generated by graphviz version 2.40.1 (20161225.0304)
 -->
<!-- Title: Tree Pages: 1 -->
<svg width="1533pt" height="642pt"
 viewBox="0.00 0.00 1532.99 642.00" xmlns="http://www.w3.org/2000/svg" xmlns:xlink="http://www.w3.org/1999/xlink">
<g id="graph0" class="graph" transform="scale(1 1) rotate(0) translate(4 638)">
<title>Tree</title>
<polygon fill="#ffffff" stroke="transparent" points="-4,4 -4,-638 1528.9854,-638 1528.9854,4 -4,4"/>
<!-- 0 -->
<g id="node1" class="node">
<title>0</title>
<path fill="#399de5" fill-opacity="0.137255" stroke="#000000" d="M1130.2217,-634C1130.2217,-634 763.3877,-634 763.3877,-634 757.3877,-634 751.3877,-628 751.3877,-622 751.3877,-622 751.3877,-568 751.3877,-568 751.3877,-562 757.3877,-556 763.3877,-556 763.3877,-556 1130.2217,-556 1130.2217,-556 1136.2217,-556 1142.2217,-562 1142.2217,-568 1142.2217,-568 1142.2217,-622 1142.2217,-622 1142.2217,-628 1136.2217,-634 1130.2217,-634"/>
<text text-anchor="middle" x="946.8047" y="-618.8" font-family="Helvetica,sans-Serif" font-size="14.00" fill="#000000">grade_7_ela_4s_american_indian_or_alaska_native &lt;= 11.5</text>
<text text-anchor="middle" x="946.8047" y="-604.8" font-family="Helvetica,sans-Serif" font-size="14.00" fill="#000000">gini = 0.497</text>
<text text-anchor="middle" x="946.8047" y="-590.8" font-family="Helvetica,sans-Serif" font-size="14.00" fill="#000000">samples = 100.0%</text>
<text text-anchor="middle" x="946.8047" y="-576.8" font-family="Helvetica,sans-Serif" font-size="14.00" fill="#000000">value = [0.464, 0.536]</text>
<text text-anchor="middle" x="946.8047" y="-562.8" font-family="Helvetica,sans-Serif" font-size="14.00" fill="#000000">class = high_registrations</text>
</g>
<!-- 1 -->
<g id="node2" class="node">
<title>1</title>
<path fill="#e58139" fill-opacity="0.800000" stroke="#000000" d="M850.4483,-520C850.4483,-520 641.1611,-520 641.1611,-520 635.1611,-520 629.1611,-514 629.1611,-508 629.1611,-508 629.1611,-454 629.1611,-454 629.1611,-448 635.1611,-442 641.1611,-442 641.1611,-442 850.4483,-442 850.4483,-442 856.4483,-442 862.4483,-448 862.4483,-454 862.4483,-454 862.4483,-508 862.4483,-508 862.4483,-514 856.4483,-520 850.4483,-520"/>
<text text-anchor="middle" x="745.8047" y="-504.8" font-family="Helvetica,sans-Serif" font-size="14.00" fill="#000000">number_of_classes_english &lt;= 7.5</text>
<text text-anchor="middle" x="745.8047" y="-490.8" font-family="Helvetica,sans-Serif" font-size="14.00" fill="#000000">gini = 0.277</text>
<text text-anchor="middle" x="745.8047" y="-476.8" font-family="Helvetica,sans-Serif" font-size="14.00" fill="#000000">samples = 71.0%</text>
<text text-anchor="middle" x="745.8047" y="-462.8" font-family="Helvetica,sans-Serif" font-size="14.00" fill="#000000">value = [0.834, 0.166]</text>
<text text-anchor="middle" x="745.8047" y="-448.8" font-family="Helvetica,sans-Serif" font-size="14.00" fill="#000000">class = not_high_registrations</text>
</g>
<!-- 0&#45;&gt;1 -->
<g id="edge1" class="edge">
<title>0&#45;&gt;1</title>
<path fill="none" stroke="#000000" d="M877.9131,-555.9272C860.3339,-545.9569 841.3182,-535.1718 823.3385,-524.9744"/>
<polygon fill="#000000" stroke="#000000" points="825.0313,-521.9108 814.6063,-520.0218 821.5779,-527.9997 825.0313,-521.9108"/>
<text text-anchor="middle" x="821.2618" y="-539.9196" font-family="Helvetica,sans-Serif" font-size="14.00" fill="#000000">True</text>
</g>
<!-- 16 -->
<g id="node17" class="node">
<title>16</title>
<path fill="#399de5" fill-opacity="0.901961" stroke="#000000" d="M1183.2344,-520C1183.2344,-520 966.375,-520 966.375,-520 960.375,-520 954.375,-514 954.375,-508 954.375,-508 954.375,-454 954.375,-454 954.375,-448 960.375,-442 966.375,-442 966.375,-442 1183.2344,-442 1183.2344,-442 1189.2344,-442 1195.2344,-448 1195.2344,-454 1195.2344,-454 1195.2344,-508 1195.2344,-508 1195.2344,-514 1189.2344,-520 1183.2344,-520"/>
<text text-anchor="middle" x="1074.8047" y="-504.8" font-family="Helvetica,sans-Serif" font-size="14.00" fill="#000000">number_of_classes_english &lt;= 22.0</text>
<text text-anchor="middle" x="1074.8047" y="-490.8" font-family="Helvetica,sans-Serif" font-size="14.00" fill="#000000">gini = 0.161</text>
<text text-anchor="middle" x="1074.8047" y="-476.8" font-family="Helvetica,sans-Serif" font-size="14.00" fill="#000000">samples = 29.0%</text>
<text text-anchor="middle" x="1074.8047" y="-462.8" font-family="Helvetica,sans-Serif" font-size="14.00" fill="#000000">value = [0.088, 0.912]</text>
<text text-anchor="middle" x="1074.8047" y="-448.8" font-family="Helvetica,sans-Serif" font-size="14.00" fill="#000000">class = high_registrations</text>
</g>
<!-- 0&#45;&gt;16 -->
<g id="edge16" class="edge">
<title>0&#45;&gt;16</title>
<path fill="none" stroke="#000000" d="M990.855,-555.7677C1001.2132,-546.5424 1012.346,-536.6273 1023.0093,-527.1302"/>
<polygon fill="#000000" stroke="#000000" points="1025.5333,-529.5692 1030.6732,-520.3046 1020.8777,-524.3419 1025.5333,-529.5692"/>
<text text-anchor="middle" x="1029.2293" y="-541.0629" font-family="Helvetica,sans-Serif" font-size="14.00" fill="#000000">False</text>
</g>
<!-- 2 -->
<g id="node3" class="node">
<title>2</title>
<path fill="#399de5" fill-opacity="0.498039" stroke="#000000" d="M516.1934,-406C516.1934,-406 341.416,-406 341.416,-406 335.416,-406 329.416,-400 329.416,-394 329.416,-394 329.416,-340 329.416,-340 329.416,-334 335.416,-328 341.416,-328 341.416,-328 516.1934,-328 516.1934,-328 522.1934,-328 528.1934,-334 528.1934,-340 528.1934,-340 528.1934,-394 528.1934,-394 528.1934,-400 522.1934,-406 516.1934,-406"/>
<text text-anchor="middle" x="428.8047" y="-390.8" font-family="Helvetica,sans-Serif" font-size="14.00" fill="#000000">community_school &lt;= 26.944</text>
<text text-anchor="middle" x="428.8047" y="-376.8" font-family="Helvetica,sans-Serif" font-size="14.00" fill="#000000">gini = 0.445</text>
<text text-anchor="middle" x="428.8047" y="-362.8" font-family="Helvetica,sans-Serif" font-size="14.00" fill="#000000">samples = 5.0%</text>
<text text-anchor="middle" x="428.8047" y="-348.8" font-family="Helvetica,sans-Serif" font-size="14.00" fill="#000000">value = [0.334, 0.666]</text>
<text text-anchor="middle" x="428.8047" y="-334.8" font-family="Helvetica,sans-Serif" font-size="14.00" fill="#000000">class = high_registrations</text>
</g>
<!-- 1&#45;&gt;2 -->
<g id="edge2" class="edge">
<title>1&#45;&gt;2</title>
<path fill="none" stroke="#000000" d="M637.1548,-441.9272C605.0189,-430.3704 569.8392,-417.719 537.6886,-406.157"/>
<polygon fill="#000000" stroke="#000000" points="538.8565,-402.8576 528.262,-402.767 536.4876,-409.4446 538.8565,-402.8576"/>
</g>
<!-- 7 -->
<g id="node8" class="node">
<title>7</title>
<path fill="#e58139" fill-opacity="0.874510" stroke="#000000" d="M859.3447,-406C859.3447,-406 632.2646,-406 632.2646,-406 626.2646,-406 620.2646,-400 620.2646,-394 620.2646,-394 620.2646,-340 620.2646,-340 620.2646,-334 626.2646,-328 632.2646,-328 632.2646,-328 859.3447,-328 859.3447,-328 865.3447,-328 871.3447,-334 871.3447,-340 871.3447,-340 871.3447,-394 871.3447,-394 871.3447,-400 865.3447,-406 859.3447,-406"/>
<text text-anchor="middle" x="745.8047" y="-390.8" font-family="Helvetica,sans-Serif" font-size="14.00" fill="#000000">grade_7_math_4s_multiracial &lt;= 13.5</text>
<text text-anchor="middle" x="745.8047" y="-376.8" font-family="Helvetica,sans-Serif" font-size="14.00" fill="#000000">gini = 0.197</text>
<text text-anchor="middle" x="745.8047" y="-362.8" font-family="Helvetica,sans-Serif" font-size="14.00" fill="#000000">samples = 66.0%</text>
<text text-anchor="middle" x="745.8047" y="-348.8" font-family="Helvetica,sans-Serif" font-size="14.00" fill="#000000">value = [0.889, 0.111]</text>
<text text-anchor="middle" x="745.8047" y="-334.8" font-family="Helvetica,sans-Serif" font-size="14.00" fill="#000000">class = not_high_registrations</text>
</g>
<!-- 1&#45;&gt;7 -->
<g id="edge7" class="edge">
<title>1&#45;&gt;7</title>
<path fill="none" stroke="#000000" d="M745.8047,-441.7677C745.8047,-433.6172 745.8047,-424.9283 745.8047,-416.4649"/>
<polygon fill="#000000" stroke="#000000" points="749.3048,-416.3046 745.8047,-406.3046 742.3048,-416.3047 749.3048,-416.3046"/>
</g>
<!-- 3 -->
<g id="node4" class="node">
<title>3</title>
<path fill="#e58139" fill-opacity="0.666667" stroke="#000000" d="M311.8003,-292C311.8003,-292 71.8091,-292 71.8091,-292 65.8091,-292 59.8091,-286 59.8091,-280 59.8091,-280 59.8091,-226 59.8091,-226 59.8091,-220 65.8091,-214 71.8091,-214 71.8091,-214 311.8003,-214 311.8003,-214 317.8003,-214 323.8003,-220 323.8003,-226 323.8003,-226 323.8003,-280 323.8003,-280 323.8003,-286 317.8003,-292 311.8003,-292"/>
<text text-anchor="middle" x="191.8047" y="-276.8" font-family="Helvetica,sans-Serif" font-size="14.00" fill="#000000">supportive_environment_percent &lt;= 1.5</text>
<text text-anchor="middle" x="191.8047" y="-262.8" font-family="Helvetica,sans-Serif" font-size="14.00" fill="#000000">gini = 0.375</text>
<text text-anchor="middle" x="191.8047" y="-248.8" font-family="Helvetica,sans-Serif" font-size="14.00" fill="#000000">samples = 3.3%</text>
<text text-anchor="middle" x="191.8047" y="-234.8" font-family="Helvetica,sans-Serif" font-size="14.00" fill="#000000">value = [0.75, 0.25]</text>
<text text-anchor="middle" x="191.8047" y="-220.8" font-family="Helvetica,sans-Serif" font-size="14.00" fill="#000000">class = not_high_registrations</text>
</g>
<!-- 2&#45;&gt;3 -->
<g id="edge3" class="edge">
<title>2&#45;&gt;3</title>
<path fill="none" stroke="#000000" d="M347.5743,-327.9272C326.4697,-317.7756 303.6092,-306.7794 282.0701,-296.4188"/>
<polygon fill="#000000" stroke="#000000" points="283.4578,-293.2025 272.9289,-292.0218 280.4234,-299.5107 283.4578,-293.2025"/>
</g>
<!-- 6 -->
<g id="node7" class="node">
<title>6</title>
<path fill="#399de5" stroke="#000000" d="M504.1664,-285C504.1664,-285 353.443,-285 353.443,-285 347.443,-285 341.443,-279 341.443,-273 341.443,-273 341.443,-233 341.443,-233 341.443,-227 347.443,-221 353.443,-221 353.443,-221 504.1664,-221 504.1664,-221 510.1664,-221 516.1664,-227 516.1664,-233 516.1664,-233 516.1664,-273 516.1664,-273 516.1664,-279 510.1664,-285 504.1664,-285"/>
<text text-anchor="middle" x="428.8047" y="-269.8" font-family="Helvetica,sans-Serif" font-size="14.00" fill="#000000">gini = &#45;0.0</text>
<text text-anchor="middle" x="428.8047" y="-255.8" font-family="Helvetica,sans-Serif" font-size="14.00" fill="#000000">samples = 1.7%</text>
<text text-anchor="middle" x="428.8047" y="-241.8" font-family="Helvetica,sans-Serif" font-size="14.00" fill="#000000">value = [0.0, 1.0]</text>
<text text-anchor="middle" x="428.8047" y="-227.8" font-family="Helvetica,sans-Serif" font-size="14.00" fill="#000000">class = high_registrations</text>
</g>
<!-- 2&#45;&gt;6 -->
<g id="edge6" class="edge">
<title>2&#45;&gt;6</title>
<path fill="none" stroke="#000000" d="M428.8047,-327.7677C428.8047,-317.3338 428.8047,-306.0174 428.8047,-295.4215"/>
<polygon fill="#000000" stroke="#000000" points="432.3048,-295.1252 428.8047,-285.1252 425.3048,-295.1252 432.3048,-295.1252"/>
</g>
<!-- 4 -->
<g id="node5" class="node">
<title>4</title>
<path fill="#e58139" stroke="#000000" d="M189.4144,-171C189.4144,-171 12.1949,-171 12.1949,-171 6.1949,-171 .1949,-165 .1949,-159 .1949,-159 .1949,-119 .1949,-119 .1949,-113 6.1949,-107 12.1949,-107 12.1949,-107 189.4144,-107 189.4144,-107 195.4144,-107 201.4144,-113 201.4144,-119 201.4144,-119 201.4144,-159 201.4144,-159 201.4144,-165 195.4144,-171 189.4144,-171"/>
<text text-anchor="middle" x="100.8047" y="-155.8" font-family="Helvetica,sans-Serif" font-size="14.00" fill="#000000">gini = 0.0</text>
<text text-anchor="middle" x="100.8047" y="-141.8" font-family="Helvetica,sans-Serif" font-size="14.00" fill="#000000">samples = 2.5%</text>
<text text-anchor="middle" x="100.8047" y="-127.8" font-family="Helvetica,sans-Serif" font-size="14.00" fill="#000000">value = [1.0, 0.0]</text>
<text text-anchor="middle" x="100.8047" y="-113.8" font-family="Helvetica,sans-Serif" font-size="14.00" fill="#000000">class = not_high_registrations</text>
</g>
<!-- 3&#45;&gt;4 -->
<g id="edge4" class="edge">
<title>3&#45;&gt;4</title>
<path fill="none" stroke="#000000" d="M160.4876,-213.7677C151.5516,-202.573 141.8045,-190.3624 132.827,-179.1158"/>
<polygon fill="#000000" stroke="#000000" points="135.4225,-176.7571 126.4485,-171.1252 129.9517,-181.1241 135.4225,-176.7571"/>
</g>
<!-- 5 -->
<g id="node6" class="node">
<title>5</title>
<path fill="#399de5" fill-opacity="0.698039" stroke="#000000" d="M382.1664,-171C382.1664,-171 231.443,-171 231.443,-171 225.443,-171 219.443,-165 219.443,-159 219.443,-159 219.443,-119 219.443,-119 219.443,-113 225.443,-107 231.443,-107 231.443,-107 382.1664,-107 382.1664,-107 388.1664,-107 394.1664,-113 394.1664,-119 394.1664,-119 394.1664,-159 394.1664,-159 394.1664,-165 388.1664,-171 382.1664,-171"/>
<text text-anchor="middle" x="306.8047" y="-155.8" font-family="Helvetica,sans-Serif" font-size="14.00" fill="#000000">gini = 0.355</text>
<text text-anchor="middle" x="306.8047" y="-141.8" font-family="Helvetica,sans-Serif" font-size="14.00" fill="#000000">samples = 0.8%</text>
<text text-anchor="middle" x="306.8047" y="-127.8" font-family="Helvetica,sans-Serif" font-size="14.00" fill="#000000">value = [0.231, 0.769]</text>
<text text-anchor="middle" x="306.8047" y="-113.8" font-family="Helvetica,sans-Serif" font-size="14.00" fill="#000000">class = high_registrations</text>
</g>
<!-- 3&#45;&gt;5 -->
<g id="edge5" class="edge">
<title>3&#45;&gt;5</title>
<path fill="none" stroke="#000000" d="M231.3812,-213.7677C242.8933,-202.3556 255.4705,-189.8878 266.9968,-178.4618"/>
<polygon fill="#000000" stroke="#000000" points="269.7598,-180.651 274.3977,-171.1252 264.8317,-175.6797 269.7598,-180.651"/>
</g>
<!-- 8 -->
<g id="node9" class="node">
<title>8</title>
<path fill="#e58139" fill-opacity="0.698039" stroke="#000000" d="M723.4144,-292C723.4144,-292 546.1949,-292 546.1949,-292 540.1949,-292 534.1949,-286 534.1949,-280 534.1949,-280 534.1949,-226 534.1949,-226 534.1949,-220 540.1949,-214 546.1949,-214 546.1949,-214 723.4144,-214 723.4144,-214 729.4144,-214 735.4144,-220 735.4144,-226 735.4144,-226 735.4144,-280 735.4144,-280 735.4144,-286 729.4144,-292 723.4144,-292"/>
<text text-anchor="middle" x="634.8047" y="-276.8" font-family="Helvetica,sans-Serif" font-size="14.00" fill="#000000">in_staten &lt;= 10.5</text>
<text text-anchor="middle" x="634.8047" y="-262.8" font-family="Helvetica,sans-Serif" font-size="14.00" fill="#000000">gini = 0.357</text>
<text text-anchor="middle" x="634.8047" y="-248.8" font-family="Helvetica,sans-Serif" font-size="14.00" fill="#000000">samples = 29.0%</text>
<text text-anchor="middle" x="634.8047" y="-234.8" font-family="Helvetica,sans-Serif" font-size="14.00" fill="#000000">value = [0.768, 0.232]</text>
<text text-anchor="middle" x="634.8047" y="-220.8" font-family="Helvetica,sans-Serif" font-size="14.00" fill="#000000">class = not_high_registrations</text>
</g>
<!-- 7&#45;&gt;8 -->
<g id="edge8" class="edge">
<title>7&#45;&gt;8</title>
<path fill="none" stroke="#000000" d="M707.6048,-327.7677C698.7967,-318.7216 689.3428,-309.0121 680.2601,-299.6839"/>
<polygon fill="#000000" stroke="#000000" points="682.5589,-297.0277 673.075,-292.3046 677.5435,-301.9111 682.5589,-297.0277"/>
</g>
<!-- 15 -->
<g id="node16" class="node">
<title>15</title>
<path fill="#e58139" stroke="#000000" d="M943.4144,-285C943.4144,-285 766.1949,-285 766.1949,-285 760.1949,-285 754.1949,-279 754.1949,-273 754.1949,-273 754.1949,-233 754.1949,-233 754.1949,-227 760.1949,-221 766.1949,-221 766.1949,-221 943.4144,-221 943.4144,-221 949.4144,-221 955.4144,-227 955.4144,-233 955.4144,-233 955.4144,-273 955.4144,-273 955.4144,-279 949.4144,-285 943.4144,-285"/>
<text text-anchor="middle" x="854.8047" y="-269.8" font-family="Helvetica,sans-Serif" font-size="14.00" fill="#000000">gini = 0.0</text>
<text text-anchor="middle" x="854.8047" y="-255.8" font-family="Helvetica,sans-Serif" font-size="14.00" fill="#000000">samples = 36.9%</text>
<text text-anchor="middle" x="854.8047" y="-241.8" font-family="Helvetica,sans-Serif" font-size="14.00" fill="#000000">value = [1.0, 0.0]</text>
<text text-anchor="middle" x="854.8047" y="-227.8" font-family="Helvetica,sans-Serif" font-size="14.00" fill="#000000">class = not_high_registrations</text>
</g>
<!-- 7&#45;&gt;15 -->
<g id="edge15" class="edge">
<title>7&#45;&gt;15</title>
<path fill="none" stroke="#000000" d="M783.3163,-327.7677C794.2278,-316.3556 806.1488,-303.8878 817.0737,-292.4618"/>
<polygon fill="#000000" stroke="#000000" points="819.7074,-294.7718 824.0885,-285.1252 814.6479,-289.9342 819.7074,-294.7718"/>
</g>
<!-- 9 -->
<g id="node10" class="node">
<title>9</title>
<path fill="#e58139" fill-opacity="0.847059" stroke="#000000" d="M662.4144,-178C662.4144,-178 485.1949,-178 485.1949,-178 479.1949,-178 473.1949,-172 473.1949,-166 473.1949,-166 473.1949,-112 473.1949,-112 473.1949,-106 479.1949,-100 485.1949,-100 485.1949,-100 662.4144,-100 662.4144,-100 668.4144,-100 674.4144,-106 674.4144,-112 674.4144,-112 674.4144,-166 674.4144,-166 674.4144,-172 668.4144,-178 662.4144,-178"/>
<text text-anchor="middle" x="573.8047" y="-162.8" font-family="Helvetica,sans-Serif" font-size="14.00" fill="#000000">percent_white &lt;= 0.581</text>
<text text-anchor="middle" x="573.8047" y="-148.8" font-family="Helvetica,sans-Serif" font-size="14.00" fill="#000000">gini = 0.228</text>
<text text-anchor="middle" x="573.8047" y="-134.8" font-family="Helvetica,sans-Serif" font-size="14.00" fill="#000000">samples = 24.1%</text>
<text text-anchor="middle" x="573.8047" y="-120.8" font-family="Helvetica,sans-Serif" font-size="14.00" fill="#000000">value = [0.869, 0.131]</text>
<text text-anchor="middle" x="573.8047" y="-106.8" font-family="Helvetica,sans-Serif" font-size="14.00" fill="#000000">class = not_high_registrations</text>
</g>
<!-- 8&#45;&gt;9 -->
<g id="edge9" class="edge">
<title>8&#45;&gt;9</title>
<path fill="none" stroke="#000000" d="M613.8119,-213.7677C609.259,-205.259 604.3921,-196.1634 599.6763,-187.3502"/>
<polygon fill="#000000" stroke="#000000" points="602.6401,-185.4705 594.8361,-178.3046 596.4681,-188.773 602.6401,-185.4705"/>
</g>
<!-- 12 -->
<g id="node13" class="node">
<title>12</title>
<path fill="#399de5" fill-opacity="0.337255" stroke="#000000" d="M921.2344,-178C921.2344,-178 704.375,-178 704.375,-178 698.375,-178 692.375,-172 692.375,-166 692.375,-166 692.375,-112 692.375,-112 692.375,-106 698.375,-100 704.375,-100 704.375,-100 921.2344,-100 921.2344,-100 927.2344,-100 933.2344,-106 933.2344,-112 933.2344,-112 933.2344,-166 933.2344,-166 933.2344,-172 927.2344,-178 921.2344,-178"/>
<text text-anchor="middle" x="812.8047" y="-162.8" font-family="Helvetica,sans-Serif" font-size="14.00" fill="#000000">number_of_classes_english &lt;= 14.5</text>
<text text-anchor="middle" x="812.8047" y="-148.8" font-family="Helvetica,sans-Serif" font-size="14.00" fill="#000000">gini = 0.479</text>
<text text-anchor="middle" x="812.8047" y="-134.8" font-family="Helvetica,sans-Serif" font-size="14.00" fill="#000000">samples = 5.0%</text>
<text text-anchor="middle" x="812.8047" y="-120.8" font-family="Helvetica,sans-Serif" font-size="14.00" fill="#000000">value = [0.398, 0.602]</text>
<text text-anchor="middle" x="812.8047" y="-106.8" font-family="Helvetica,sans-Serif" font-size="14.00" fill="#000000">class = high_registrations</text>
</g>
<!-- 8&#45;&gt;12 -->
<g id="edge12" class="edge">
<title>8&#45;&gt;12</title>
<path fill="none" stroke="#000000" d="M696.0622,-213.7677C711.2506,-204.0403 727.6367,-193.5458 743.1923,-183.5832"/>
<polygon fill="#000000" stroke="#000000" points="745.2026,-186.4521 751.7359,-178.1115 741.4273,-180.5574 745.2026,-186.4521"/>
</g>
<!-- 10 -->
<g id="node11" class="node">
<title>10</title>
<path fill="#e58139" fill-opacity="0.003922" stroke="#000000" d="M447.4144,-64C447.4144,-64 270.1949,-64 270.1949,-64 264.1949,-64 258.1949,-58 258.1949,-52 258.1949,-52 258.1949,-12 258.1949,-12 258.1949,-6 264.1949,0 270.1949,0 270.1949,0 447.4144,0 447.4144,0 453.4144,0 459.4144,-6 459.4144,-12 459.4144,-12 459.4144,-52 459.4144,-52 459.4144,-58 453.4144,-64 447.4144,-64"/>
<text text-anchor="middle" x="358.8047" y="-48.8" font-family="Helvetica,sans-Serif" font-size="14.00" fill="#000000">gini = 0.5</text>
<text text-anchor="middle" x="358.8047" y="-34.8" font-family="Helvetica,sans-Serif" font-size="14.00" fill="#000000">samples = 3.7%</text>
<text text-anchor="middle" x="358.8047" y="-20.8" font-family="Helvetica,sans-Serif" font-size="14.00" fill="#000000">value = [0.501, 0.499]</text>
<text text-anchor="middle" x="358.8047" y="-6.8" font-family="Helvetica,sans-Serif" font-size="14.00" fill="#000000">class = not_high_registrations</text>
</g>
<!-- 9&#45;&gt;10 -->
<g id="edge10" class="edge">
<title>9&#45;&gt;10</title>
<path fill="none" stroke="#000000" d="M495.2721,-99.9163C474.7793,-89.7176 452.7687,-78.7635 432.5348,-68.6936"/>
<polygon fill="#000000" stroke="#000000" points="433.887,-65.4571 423.375,-64.135 430.7681,-71.7239 433.887,-65.4571"/>
</g>
<!-- 11 -->
<g id="node12" class="node">
<title>11</title>
<path fill="#e58139" fill-opacity="0.956863" stroke="#000000" d="M667.4144,-64C667.4144,-64 490.1949,-64 490.1949,-64 484.1949,-64 478.1949,-58 478.1949,-52 478.1949,-52 478.1949,-12 478.1949,-12 478.1949,-6 484.1949,0 490.1949,0 490.1949,0 667.4144,0 667.4144,0 673.4144,0 679.4144,-6 679.4144,-12 679.4144,-12 679.4144,-52 679.4144,-52 679.4144,-58 673.4144,-64 667.4144,-64"/>
<text text-anchor="middle" x="578.8047" y="-48.8" font-family="Helvetica,sans-Serif" font-size="14.00" fill="#000000">gini = 0.078</text>
<text text-anchor="middle" x="578.8047" y="-34.8" font-family="Helvetica,sans-Serif" font-size="14.00" fill="#000000">samples = 20.3%</text>
<text text-anchor="middle" x="578.8047" y="-20.8" font-family="Helvetica,sans-Serif" font-size="14.00" fill="#000000">value = [0.959, 0.041]</text>
<text text-anchor="middle" x="578.8047" y="-6.8" font-family="Helvetica,sans-Serif" font-size="14.00" fill="#000000">class = not_high_registrations</text>
</g>
<!-- 9&#45;&gt;11 -->
<g id="edge11" class="edge">
<title>9&#45;&gt;11</title>
<path fill="none" stroke="#000000" d="M575.6381,-99.7647C576.0265,-91.4537 576.438,-82.6472 576.8313,-74.2305"/>
<polygon fill="#000000" stroke="#000000" points="580.3285,-74.3694 577.2992,-64.2169 573.3362,-74.0426 580.3285,-74.3694"/>
</g>
<!-- 13 -->
<g id="node14" class="node">
<title>13</title>
<path fill="#e58139" stroke="#000000" d="M896.4144,-64C896.4144,-64 719.1949,-64 719.1949,-64 713.1949,-64 707.1949,-58 707.1949,-52 707.1949,-52 707.1949,-12 707.1949,-12 707.1949,-6 713.1949,0 719.1949,0 719.1949,0 896.4144,0 896.4144,0 902.4144,0 908.4144,-6 908.4144,-12 908.4144,-12 908.4144,-52 908.4144,-52 908.4144,-58 902.4144,-64 896.4144,-64"/>
<text text-anchor="middle" x="807.8047" y="-48.8" font-family="Helvetica,sans-Serif" font-size="14.00" fill="#000000">gini = 0.0</text>
<text text-anchor="middle" x="807.8047" y="-34.8" font-family="Helvetica,sans-Serif" font-size="14.00" fill="#000000">samples = 2.1%</text>
<text text-anchor="middle" x="807.8047" y="-20.8" font-family="Helvetica,sans-Serif" font-size="14.00" fill="#000000">value = [1.0, 0.0]</text>
<text text-anchor="middle" x="807.8047" y="-6.8" font-family="Helvetica,sans-Serif" font-size="14.00" fill="#000000">class = not_high_registrations</text>
</g>
<!-- 12&#45;&gt;13 -->
<g id="edge13" class="edge">
<title>12&#45;&gt;13</title>
<path fill="none" stroke="#000000" d="M810.9713,-99.7647C810.5829,-91.4537 810.1714,-82.6472 809.7781,-74.2305"/>
<polygon fill="#000000" stroke="#000000" points="813.2732,-74.0426 809.3101,-64.2169 806.2808,-74.3694 813.2732,-74.0426"/>
</g>
<!-- 14 -->
<g id="node15" class="node">
<title>14</title>
<path fill="#399de5" fill-opacity="0.760784" stroke="#000000" d="M1089.1664,-64C1089.1664,-64 938.443,-64 938.443,-64 932.443,-64 926.443,-58 926.443,-52 926.443,-52 926.443,-12 926.443,-12 926.443,-6 932.443,0 938.443,0 938.443,0 1089.1664,0 1089.1664,0 1095.1664,0 1101.1664,-6 1101.1664,-12 1101.1664,-12 1101.1664,-52 1101.1664,-52 1101.1664,-58 1095.1664,-64 1089.1664,-64"/>
<text text-anchor="middle" x="1013.8047" y="-48.8" font-family="Helvetica,sans-Serif" font-size="14.00" fill="#000000">gini = 0.313</text>
<text text-anchor="middle" x="1013.8047" y="-34.8" font-family="Helvetica,sans-Serif" font-size="14.00" fill="#000000">samples = 2.9%</text>
<text text-anchor="middle" x="1013.8047" y="-20.8" font-family="Helvetica,sans-Serif" font-size="14.00" fill="#000000">value = [0.194, 0.806]</text>
<text text-anchor="middle" x="1013.8047" y="-6.8" font-family="Helvetica,sans-Serif" font-size="14.00" fill="#000000">class = high_registrations</text>
</g>
<!-- 12&#45;&gt;14 -->
<g id="edge14" class="edge">
<title>12&#45;&gt;14</title>
<path fill="none" stroke="#000000" d="M886.2235,-99.9163C905.2094,-89.8095 925.5886,-78.9608 944.364,-68.966"/>
<polygon fill="#000000" stroke="#000000" points="946.2565,-71.9236 953.439,-64.135 942.9671,-65.7446 946.2565,-71.9236"/>
</g>
<!-- 17 -->
<g id="node18" class="node">
<title>17</title>
<path fill="#399de5" fill-opacity="0.937255" stroke="#000000" d="M1150.1664,-406C1150.1664,-406 999.443,-406 999.443,-406 993.443,-406 987.443,-400 987.443,-394 987.443,-394 987.443,-340 987.443,-340 987.443,-334 993.443,-328 999.443,-328 999.443,-328 1150.1664,-328 1150.1664,-328 1156.1664,-328 1162.1664,-334 1162.1664,-340 1162.1664,-340 1162.1664,-394 1162.1664,-394 1162.1664,-400 1156.1664,-406 1150.1664,-406"/>
<text text-anchor="middle" x="1074.8047" y="-390.8" font-family="Helvetica,sans-Serif" font-size="14.00" fill="#000000">in_brooklyn &lt;= 182.0</text>
<text text-anchor="middle" x="1074.8047" y="-376.8" font-family="Helvetica,sans-Serif" font-size="14.00" fill="#000000">gini = 0.112</text>
<text text-anchor="middle" x="1074.8047" y="-362.8" font-family="Helvetica,sans-Serif" font-size="14.00" fill="#000000">samples = 26.1%</text>
<text text-anchor="middle" x="1074.8047" y="-348.8" font-family="Helvetica,sans-Serif" font-size="14.00" fill="#000000">value = [0.059, 0.941]</text>
<text text-anchor="middle" x="1074.8047" y="-334.8" font-family="Helvetica,sans-Serif" font-size="14.00" fill="#000000">class = high_registrations</text>
</g>
<!-- 16&#45;&gt;17 -->
<g id="edge17" class="edge">
<title>16&#45;&gt;17</title>
<path fill="none" stroke="#000000" d="M1074.8047,-441.7677C1074.8047,-433.6172 1074.8047,-424.9283 1074.8047,-416.4649"/>
<polygon fill="#000000" stroke="#000000" points="1078.3048,-416.3046 1074.8047,-406.3046 1071.3048,-416.3047 1078.3048,-416.3046"/>
</g>
<!-- 24 -->
<g id="node25" class="node">
<title>24</title>
<path fill="#e58139" stroke="#000000" d="M1369.4144,-399C1369.4144,-399 1192.1949,-399 1192.1949,-399 1186.1949,-399 1180.1949,-393 1180.1949,-387 1180.1949,-387 1180.1949,-347 1180.1949,-347 1180.1949,-341 1186.1949,-335 1192.1949,-335 1192.1949,-335 1369.4144,-335 1369.4144,-335 1375.4144,-335 1381.4144,-341 1381.4144,-347 1381.4144,-347 1381.4144,-387 1381.4144,-387 1381.4144,-393 1375.4144,-399 1369.4144,-399"/>
<text text-anchor="middle" x="1280.8047" y="-383.8" font-family="Helvetica,sans-Serif" font-size="14.00" fill="#000000">gini = 0.0</text>
<text text-anchor="middle" x="1280.8047" y="-369.8" font-family="Helvetica,sans-Serif" font-size="14.00" fill="#000000">samples = 2.9%</text>
<text text-anchor="middle" x="1280.8047" y="-355.8" font-family="Helvetica,sans-Serif" font-size="14.00" fill="#000000">value = [1.0, 0.0]</text>
<text text-anchor="middle" x="1280.8047" y="-341.8" font-family="Helvetica,sans-Serif" font-size="14.00" fill="#000000">class = not_high_registrations</text>
</g>
<!-- 16&#45;&gt;24 -->
<g id="edge24" class="edge">
<title>16&#45;&gt;24</title>
<path fill="none" stroke="#000000" d="M1145.41,-441.9272C1167.6235,-429.6342 1192.0751,-416.1028 1214.0151,-403.9612"/>
<polygon fill="#000000" stroke="#000000" points="1215.8733,-406.9332 1222.9281,-399.0288 1212.4838,-400.8085 1215.8733,-406.9332"/>
</g>
<!-- 18 -->
<g id="node19" class="node">
<title>18</title>
<path fill="#e58139" stroke="#000000" d="M1163.4144,-285C1163.4144,-285 986.1949,-285 986.1949,-285 980.1949,-285 974.1949,-279 974.1949,-273 974.1949,-273 974.1949,-233 974.1949,-233 974.1949,-227 980.1949,-221 986.1949,-221 986.1949,-221 1163.4144,-221 1163.4144,-221 1169.4144,-221 1175.4144,-227 1175.4144,-233 1175.4144,-233 1175.4144,-273 1175.4144,-273 1175.4144,-279 1169.4144,-285 1163.4144,-285"/>
<text text-anchor="middle" x="1074.8047" y="-269.8" font-family="Helvetica,sans-Serif" font-size="14.00" fill="#000000">gini = 0.0</text>
<text text-anchor="middle" x="1074.8047" y="-255.8" font-family="Helvetica,sans-Serif" font-size="14.00" fill="#000000">samples = 0.8%</text>
<text text-anchor="middle" x="1074.8047" y="-241.8" font-family="Helvetica,sans-Serif" font-size="14.00" fill="#000000">value = [1.0, 0.0]</text>
<text text-anchor="middle" x="1074.8047" y="-227.8" font-family="Helvetica,sans-Serif" font-size="14.00" fill="#000000">class = not_high_registrations</text>
</g>
<!-- 17&#45;&gt;18 -->
<g id="edge18" class="edge">
<title>17&#45;&gt;18</title>
<path fill="none" stroke="#000000" d="M1074.8047,-327.7677C1074.8047,-317.3338 1074.8047,-306.0174 1074.8047,-295.4215"/>
<polygon fill="#000000" stroke="#000000" points="1078.3048,-295.1252 1074.8047,-285.1252 1071.3048,-295.1252 1078.3048,-295.1252"/>
</g>
<!-- 19 -->
<g id="node20" class="node">
<title>19</title>
<path fill="#399de5" fill-opacity="0.949020" stroke="#000000" d="M1356.1664,-292C1356.1664,-292 1205.443,-292 1205.443,-292 1199.443,-292 1193.443,-286 1193.443,-280 1193.443,-280 1193.443,-226 1193.443,-226 1193.443,-220 1199.443,-214 1205.443,-214 1205.443,-214 1356.1664,-214 1356.1664,-214 1362.1664,-214 1368.1664,-220 1368.1664,-226 1368.1664,-226 1368.1664,-280 1368.1664,-280 1368.1664,-286 1362.1664,-292 1356.1664,-292"/>
<text text-anchor="middle" x="1280.8047" y="-276.8" font-family="Helvetica,sans-Serif" font-size="14.00" fill="#000000">selective &lt;= 80.5</text>
<text text-anchor="middle" x="1280.8047" y="-262.8" font-family="Helvetica,sans-Serif" font-size="14.00" fill="#000000">gini = 0.094</text>
<text text-anchor="middle" x="1280.8047" y="-248.8" font-family="Helvetica,sans-Serif" font-size="14.00" fill="#000000">samples = 25.3%</text>
<text text-anchor="middle" x="1280.8047" y="-234.8" font-family="Helvetica,sans-Serif" font-size="14.00" fill="#000000">value = [0.049, 0.951]</text>
<text text-anchor="middle" x="1280.8047" y="-220.8" font-family="Helvetica,sans-Serif" font-size="14.00" fill="#000000">class = high_registrations</text>
</g>
<!-- 17&#45;&gt;19 -->
<g id="edge19" class="edge">
<title>17&#45;&gt;19</title>
<path fill="none" stroke="#000000" d="M1145.41,-327.9272C1163.4265,-317.9569 1182.9153,-307.1718 1201.3421,-296.9744"/>
<polygon fill="#000000" stroke="#000000" points="1203.2368,-299.9262 1210.2916,-292.0218 1199.8473,-293.8015 1203.2368,-299.9262"/>
</g>
<!-- 20 -->
<g id="node21" class="node">
<title>20</title>
<path fill="#e58139" stroke="#000000" d="M1227.4144,-171C1227.4144,-171 1050.1949,-171 1050.1949,-171 1044.1949,-171 1038.1949,-165 1038.1949,-159 1038.1949,-159 1038.1949,-119 1038.1949,-119 1038.1949,-113 1044.1949,-107 1050.1949,-107 1050.1949,-107 1227.4144,-107 1227.4144,-107 1233.4144,-107 1239.4144,-113 1239.4144,-119 1239.4144,-119 1239.4144,-159 1239.4144,-159 1239.4144,-165 1233.4144,-171 1227.4144,-171"/>
<text text-anchor="middle" x="1138.8047" y="-155.8" font-family="Helvetica,sans-Serif" font-size="14.00" fill="#000000">gini = 0.0</text>
<text text-anchor="middle" x="1138.8047" y="-141.8" font-family="Helvetica,sans-Serif" font-size="14.00" fill="#000000">samples = 0.8%</text>
<text text-anchor="middle" x="1138.8047" y="-127.8" font-family="Helvetica,sans-Serif" font-size="14.00" fill="#000000">value = [1.0, 0.0]</text>
<text text-anchor="middle" x="1138.8047" y="-113.8" font-family="Helvetica,sans-Serif" font-size="14.00" fill="#000000">class = not_high_registrations</text>
</g>
<!-- 19&#45;&gt;20 -->
<g id="edge20" class="edge">
<title>19&#45;&gt;20</title>
<path fill="none" stroke="#000000" d="M1231.9363,-213.7677C1217.3152,-202.0296 1201.3028,-189.1745 1186.7421,-177.485"/>
<polygon fill="#000000" stroke="#000000" points="1188.8094,-174.6563 1178.8203,-171.1252 1184.4271,-180.1149 1188.8094,-174.6563"/>
</g>
<!-- 21 -->
<g id="node22" class="node">
<title>21</title>
<path fill="#399de5" fill-opacity="0.956863" stroke="#000000" d="M1453.7867,-178C1453.7867,-178 1269.8227,-178 1269.8227,-178 1263.8227,-178 1257.8227,-172 1257.8227,-166 1257.8227,-166 1257.8227,-112 1257.8227,-112 1257.8227,-106 1263.8227,-100 1269.8227,-100 1269.8227,-100 1453.7867,-100 1453.7867,-100 1459.7867,-100 1465.7867,-106 1465.7867,-112 1465.7867,-112 1465.7867,-166 1465.7867,-166 1465.7867,-172 1459.7867,-178 1453.7867,-178"/>
<text text-anchor="middle" x="1361.8047" y="-162.8" font-family="Helvetica,sans-Serif" font-size="14.00" fill="#000000">grade_7_enrollment &lt;= 31.667</text>
<text text-anchor="middle" x="1361.8047" y="-148.8" font-family="Helvetica,sans-Serif" font-size="14.00" fill="#000000">gini = 0.082</text>
<text text-anchor="middle" x="1361.8047" y="-134.8" font-family="Helvetica,sans-Serif" font-size="14.00" fill="#000000">samples = 24.5%</text>
<text text-anchor="middle" x="1361.8047" y="-120.8" font-family="Helvetica,sans-Serif" font-size="14.00" fill="#000000">value = [0.043, 0.957]</text>
<text text-anchor="middle" x="1361.8047" y="-106.8" font-family="Helvetica,sans-Serif" font-size="14.00" fill="#000000">class = high_registrations</text>
</g>
<!-- 19&#45;&gt;21 -->
<g id="edge21" class="edge">
<title>19&#45;&gt;21</title>
<path fill="none" stroke="#000000" d="M1308.6803,-213.7677C1314.9169,-204.9903 1321.5972,-195.5883 1328.0432,-186.5161"/>
<polygon fill="#000000" stroke="#000000" points="1330.9387,-188.4837 1333.8777,-178.3046 1325.2324,-184.4292 1330.9387,-188.4837"/>
</g>
<!-- 22 -->
<g id="node23" class="node">
<title>22</title>
<path fill="#399de5" fill-opacity="0.972549" stroke="#000000" d="M1321.1664,-64C1321.1664,-64 1170.443,-64 1170.443,-64 1164.443,-64 1158.443,-58 1158.443,-52 1158.443,-52 1158.443,-12 1158.443,-12 1158.443,-6 1164.443,0 1170.443,0 1170.443,0 1321.1664,0 1321.1664,0 1327.1664,0 1333.1664,-6 1333.1664,-12 1333.1664,-12 1333.1664,-52 1333.1664,-52 1333.1664,-58 1327.1664,-64 1321.1664,-64"/>
<text text-anchor="middle" x="1245.8047" y="-48.8" font-family="Helvetica,sans-Serif" font-size="14.00" fill="#000000">gini = 0.051</text>
<text text-anchor="middle" x="1245.8047" y="-34.8" font-family="Helvetica,sans-Serif" font-size="14.00" fill="#000000">samples = 22.4%</text>
<text text-anchor="middle" x="1245.8047" y="-20.8" font-family="Helvetica,sans-Serif" font-size="14.00" fill="#000000">value = [0.026, 0.974]</text>
<text text-anchor="middle" x="1245.8047" y="-6.8" font-family="Helvetica,sans-Serif" font-size="14.00" fill="#000000">class = high_registrations</text>
</g>
<!-- 21&#45;&gt;22 -->
<g id="edge22" class="edge">
<title>21&#45;&gt;22</title>
<path fill="none" stroke="#000000" d="M1319.2693,-99.7647C1309.17,-90.4491 1298.396,-80.5109 1288.2986,-71.197"/>
<polygon fill="#000000" stroke="#000000" points="1290.455,-68.4244 1280.7314,-64.2169 1285.7088,-73.5697 1290.455,-68.4244"/>
</g>
<!-- 23 -->
<g id="node24" class="node">
<title>23</title>
<path fill="#399de5" fill-opacity="0.498039" stroke="#000000" d="M1513.1664,-64C1513.1664,-64 1362.443,-64 1362.443,-64 1356.443,-64 1350.443,-58 1350.443,-52 1350.443,-52 1350.443,-12 1350.443,-12 1350.443,-6 1356.443,0 1362.443,0 1362.443,0 1513.1664,0 1513.1664,0 1519.1664,0 1525.1664,-6 1525.1664,-12 1525.1664,-12 1525.1664,-52 1525.1664,-52 1525.1664,-58 1519.1664,-64 1513.1664,-64"/>
<text text-anchor="middle" x="1437.8047" y="-48.8" font-family="Helvetica,sans-Serif" font-size="14.00" fill="#000000">gini = 0.445</text>
<text text-anchor="middle" x="1437.8047" y="-34.8" font-family="Helvetica,sans-Serif" font-size="14.00" fill="#000000">samples = 2.1%</text>
<text text-anchor="middle" x="1437.8047" y="-20.8" font-family="Helvetica,sans-Serif" font-size="14.00" fill="#000000">value = [0.334, 0.666]</text>
<text text-anchor="middle" x="1437.8047" y="-6.8" font-family="Helvetica,sans-Serif" font-size="14.00" fill="#000000">class = high_registrations</text>
</g>
<!-- 21&#45;&gt;23 -->
<g id="edge23" class="edge">
<title>21&#45;&gt;23</title>
<path fill="none" stroke="#000000" d="M1389.6727,-99.7647C1395.9651,-90.9057 1402.6573,-81.4838 1408.9879,-72.571"/>
<polygon fill="#000000" stroke="#000000" points="1411.9844,-74.3964 1414.9217,-64.2169 1406.2774,-70.3429 1411.9844,-74.3964"/>
</g>
</g>
</svg>
