<?xml version="1.0" encoding="UTF-8" standalone="no"?>
<!DOCTYPE svg PUBLIC "-//W3C//DTD SVG 1.1//EN"
 "http://www.w3.org/Graphics/SVG/1.1/DTD/svg11.dtd">
<!-- Generated by graphviz version 2.40.1 (20161225.0304)
 -->
<!-- Title: Tree Pages: 1 -->
<svg width="2310pt" height="642pt"
 viewBox="0.00 0.00 2309.99 642.00" xmlns="http://www.w3.org/2000/svg" xmlns:xlink="http://www.w3.org/1999/xlink">
<g id="graph0" class="graph" transform="scale(1 1) rotate(0) translate(4 638)">
<title>Tree</title>
<polygon fill="#ffffff" stroke="transparent" points="-4,4 -4,-638 2305.9854,-638 2305.9854,4 -4,4"/>
<!-- 0 -->
<g id="node1" class="node">
<title>0</title>
<path fill="#e58139" fill-opacity="0.101961" stroke="#000000" d="M1121.7904,-634C1121.7904,-634 944.5709,-634 944.5709,-634 938.5709,-634 932.5709,-628 932.5709,-622 932.5709,-622 932.5709,-568 932.5709,-568 932.5709,-562 938.5709,-556 944.5709,-556 944.5709,-556 1121.7904,-556 1121.7904,-556 1127.7904,-556 1133.7904,-562 1133.7904,-568 1133.7904,-568 1133.7904,-622 1133.7904,-622 1133.7904,-628 1127.7904,-634 1121.7904,-634"/>
<text text-anchor="middle" x="1033.1807" y="-618.8" font-family="Helvetica,sans-Serif" font-size="14.00" fill="#000000">percent_black &lt;= 2.575</text>
<text text-anchor="middle" x="1033.1807" y="-604.8" font-family="Helvetica,sans-Serif" font-size="14.00" fill="#000000">gini = 0.499</text>
<text text-anchor="middle" x="1033.1807" y="-590.8" font-family="Helvetica,sans-Serif" font-size="14.00" fill="#000000">samples = 100.0%</text>
<text text-anchor="middle" x="1033.1807" y="-576.8" font-family="Helvetica,sans-Serif" font-size="14.00" fill="#000000">value = [0.527, 0.473]</text>
<text text-anchor="middle" x="1033.1807" y="-562.8" font-family="Helvetica,sans-Serif" font-size="14.00" fill="#000000">class = not_high_registrations</text>
</g>
<!-- 1 -->
<g id="node2" class="node">
<title>1</title>
<path fill="#e58139" fill-opacity="0.921569" stroke="#000000" d="M989.7904,-520C989.7904,-520 812.5709,-520 812.5709,-520 806.5709,-520 800.5709,-514 800.5709,-508 800.5709,-508 800.5709,-454 800.5709,-454 800.5709,-448 806.5709,-442 812.5709,-442 812.5709,-442 989.7904,-442 989.7904,-442 995.7904,-442 1001.7904,-448 1001.7904,-454 1001.7904,-454 1001.7904,-508 1001.7904,-508 1001.7904,-514 995.7904,-520 989.7904,-520"/>
<text text-anchor="middle" x="901.1807" y="-504.8" font-family="Helvetica,sans-Serif" font-size="14.00" fill="#000000">percent_asian &lt;= 2.625</text>
<text text-anchor="middle" x="901.1807" y="-490.8" font-family="Helvetica,sans-Serif" font-size="14.00" fill="#000000">gini = 0.135</text>
<text text-anchor="middle" x="901.1807" y="-476.8" font-family="Helvetica,sans-Serif" font-size="14.00" fill="#000000">samples = 57.4%</text>
<text text-anchor="middle" x="901.1807" y="-462.8" font-family="Helvetica,sans-Serif" font-size="14.00" fill="#000000">value = [0.927, 0.073]</text>
<text text-anchor="middle" x="901.1807" y="-448.8" font-family="Helvetica,sans-Serif" font-size="14.00" fill="#000000">class = not_high_registrations</text>
</g>
<!-- 0&#45;&gt;1 -->
<g id="edge1" class="edge">
<title>0&#45;&gt;1</title>
<path fill="none" stroke="#000000" d="M987.7538,-555.7677C976.9682,-546.4529 965.3682,-536.4347 954.2745,-526.8538"/>
<polygon fill="#000000" stroke="#000000" points="956.5472,-524.192 946.6913,-520.3046 951.9719,-529.4898 956.5472,-524.192"/>
<text text-anchor="middle" x="948.5157" y="-541.038" font-family="Helvetica,sans-Serif" font-size="14.00" fill="#000000">True</text>
</g>
<!-- 12 -->
<g id="node13" class="node">
<title>12</title>
<path fill="#399de5" fill-opacity="0.666667" stroke="#000000" d="M1308.2139,-520C1308.2139,-520 1088.1475,-520 1088.1475,-520 1082.1475,-520 1076.1475,-514 1076.1475,-508 1076.1475,-508 1076.1475,-454 1076.1475,-454 1076.1475,-448 1082.1475,-442 1088.1475,-442 1088.1475,-442 1308.2139,-442 1308.2139,-442 1314.2139,-442 1320.2139,-448 1320.2139,-454 1320.2139,-454 1320.2139,-508 1320.2139,-508 1320.2139,-514 1314.2139,-520 1308.2139,-520"/>
<text text-anchor="middle" x="1198.1807" y="-504.8" font-family="Helvetica,sans-Serif" font-size="14.00" fill="#000000">rigorous_instruction_percent &lt;= 10.5</text>
<text text-anchor="middle" x="1198.1807" y="-490.8" font-family="Helvetica,sans-Serif" font-size="14.00" fill="#000000">gini = 0.375</text>
<text text-anchor="middle" x="1198.1807" y="-476.8" font-family="Helvetica,sans-Serif" font-size="14.00" fill="#000000">samples = 42.6%</text>
<text text-anchor="middle" x="1198.1807" y="-462.8" font-family="Helvetica,sans-Serif" font-size="14.00" fill="#000000">value = [0.25, 0.75]</text>
<text text-anchor="middle" x="1198.1807" y="-448.8" font-family="Helvetica,sans-Serif" font-size="14.00" fill="#000000">class = high_registrations</text>
</g>
<!-- 0&#45;&gt;12 -->
<g id="edge12" class="edge">
<title>0&#45;&gt;12</title>
<path fill="none" stroke="#000000" d="M1089.9643,-555.7677C1103.9131,-546.1303 1118.9516,-535.7401 1133.2516,-525.8601"/>
<polygon fill="#000000" stroke="#000000" points="1135.3342,-528.6754 1141.572,-520.1115 1131.3551,-522.9163 1135.3342,-528.6754"/>
<text text-anchor="middle" x="1137.0766" y="-540.504" font-family="Helvetica,sans-Serif" font-size="14.00" fill="#000000">False</text>
</g>
<!-- 2 -->
<g id="node3" class="node">
<title>2</title>
<path fill="#e58139" fill-opacity="0.952941" stroke="#000000" d="M653.8516,-406C653.8516,-406 430.5097,-406 430.5097,-406 424.5097,-406 418.5097,-400 418.5097,-394 418.5097,-394 418.5097,-340 418.5097,-340 418.5097,-334 424.5097,-328 430.5097,-328 430.5097,-328 653.8516,-328 653.8516,-328 659.8516,-328 665.8516,-334 665.8516,-340 665.8516,-340 665.8516,-394 665.8516,-394 665.8516,-400 659.8516,-406 653.8516,-406"/>
<text text-anchor="middle" x="542.1807" y="-390.8" font-family="Helvetica,sans-Serif" font-size="14.00" fill="#000000">number_of_students_english &lt;= 94.5</text>
<text text-anchor="middle" x="542.1807" y="-376.8" font-family="Helvetica,sans-Serif" font-size="14.00" fill="#000000">gini = 0.088</text>
<text text-anchor="middle" x="542.1807" y="-362.8" font-family="Helvetica,sans-Serif" font-size="14.00" fill="#000000">samples = 55.3%</text>
<text text-anchor="middle" x="542.1807" y="-348.8" font-family="Helvetica,sans-Serif" font-size="14.00" fill="#000000">value = [0.954, 0.046]</text>
<text text-anchor="middle" x="542.1807" y="-334.8" font-family="Helvetica,sans-Serif" font-size="14.00" fill="#000000">class = not_high_registrations</text>
</g>
<!-- 1&#45;&gt;2 -->
<g id="edge2" class="edge">
<title>1&#45;&gt;2</title>
<path fill="none" stroke="#000000" d="M800.2238,-448.9413C761.2624,-436.5691 716.1513,-422.2442 674.649,-409.0652"/>
<polygon fill="#000000" stroke="#000000" points="675.6113,-405.6985 665.0209,-406.0078 673.4926,-412.3703 675.6113,-405.6985"/>
</g>
<!-- 9 -->
<g id="node10" class="node">
<title>9</title>
<path fill="#399de5" fill-opacity="0.400000" stroke="#000000" d="M1034.4239,-406C1034.4239,-406 767.9374,-406 767.9374,-406 761.9374,-406 755.9374,-400 755.9374,-394 755.9374,-394 755.9374,-340 755.9374,-340 755.9374,-334 761.9374,-328 767.9374,-328 767.9374,-328 1034.4239,-328 1034.4239,-328 1040.4239,-328 1046.4239,-334 1046.4239,-340 1046.4239,-340 1046.4239,-394 1046.4239,-394 1046.4239,-400 1040.4239,-406 1034.4239,-406"/>
<text text-anchor="middle" x="901.1807" y="-390.8" font-family="Helvetica,sans-Serif" font-size="14.00" fill="#000000">number_of_students_social_studies &lt;= 37.5</text>
<text text-anchor="middle" x="901.1807" y="-376.8" font-family="Helvetica,sans-Serif" font-size="14.00" fill="#000000">gini = 0.469</text>
<text text-anchor="middle" x="901.1807" y="-362.8" font-family="Helvetica,sans-Serif" font-size="14.00" fill="#000000">samples = 2.0%</text>
<text text-anchor="middle" x="901.1807" y="-348.8" font-family="Helvetica,sans-Serif" font-size="14.00" fill="#000000">value = [0.376, 0.624]</text>
<text text-anchor="middle" x="901.1807" y="-334.8" font-family="Helvetica,sans-Serif" font-size="14.00" fill="#000000">class = high_registrations</text>
</g>
<!-- 1&#45;&gt;9 -->
<g id="edge9" class="edge">
<title>1&#45;&gt;9</title>
<path fill="none" stroke="#000000" d="M901.1807,-441.7677C901.1807,-433.6172 901.1807,-424.9283 901.1807,-416.4649"/>
<polygon fill="#000000" stroke="#000000" points="904.6808,-416.3046 901.1807,-406.3046 897.6808,-416.3047 904.6808,-416.3046"/>
</g>
<!-- 3 -->
<g id="node4" class="node">
<title>3</title>
<path fill="#e58139" fill-opacity="0.968627" stroke="#000000" d="M425.6205,-292C425.6205,-292 160.7409,-292 160.7409,-292 154.7409,-292 148.7409,-286 148.7409,-280 148.7409,-280 148.7409,-226 148.7409,-226 148.7409,-220 154.7409,-214 160.7409,-214 160.7409,-214 425.6205,-214 425.6205,-214 431.6205,-214 437.6205,-220 437.6205,-226 437.6205,-226 437.6205,-280 437.6205,-280 437.6205,-286 431.6205,-292 425.6205,-292"/>
<text text-anchor="middle" x="293.1807" y="-276.8" font-family="Helvetica,sans-Serif" font-size="14.00" fill="#000000">grade_7_ela_4s_hispanic_or_latino &lt;= 10.5</text>
<text text-anchor="middle" x="293.1807" y="-262.8" font-family="Helvetica,sans-Serif" font-size="14.00" fill="#000000">gini = 0.061</text>
<text text-anchor="middle" x="293.1807" y="-248.8" font-family="Helvetica,sans-Serif" font-size="14.00" fill="#000000">samples = 54.5%</text>
<text text-anchor="middle" x="293.1807" y="-234.8" font-family="Helvetica,sans-Serif" font-size="14.00" fill="#000000">value = [0.969, 0.031]</text>
<text text-anchor="middle" x="293.1807" y="-220.8" font-family="Helvetica,sans-Serif" font-size="14.00" fill="#000000">class = not_high_registrations</text>
</g>
<!-- 2&#45;&gt;3 -->
<g id="edge3" class="edge">
<title>2&#45;&gt;3</title>
<path fill="none" stroke="#000000" d="M456.8374,-327.9272C434.5652,-317.7303 410.4316,-306.6812 387.7135,-296.2801"/>
<polygon fill="#000000" stroke="#000000" points="388.9618,-293.0023 378.4125,-292.0218 386.0478,-299.3669 388.9618,-293.0023"/>
</g>
<!-- 8 -->
<g id="node9" class="node">
<title>8</title>
<path fill="#399de5" fill-opacity="0.698039" stroke="#000000" d="M617.5424,-285C617.5424,-285 466.819,-285 466.819,-285 460.819,-285 454.819,-279 454.819,-273 454.819,-273 454.819,-233 454.819,-233 454.819,-227 460.819,-221 466.819,-221 466.819,-221 617.5424,-221 617.5424,-221 623.5424,-221 629.5424,-227 629.5424,-233 629.5424,-233 629.5424,-273 629.5424,-273 629.5424,-279 623.5424,-285 617.5424,-285"/>
<text text-anchor="middle" x="542.1807" y="-269.8" font-family="Helvetica,sans-Serif" font-size="14.00" fill="#000000">gini = 0.355</text>
<text text-anchor="middle" x="542.1807" y="-255.8" font-family="Helvetica,sans-Serif" font-size="14.00" fill="#000000">samples = 0.8%</text>
<text text-anchor="middle" x="542.1807" y="-241.8" font-family="Helvetica,sans-Serif" font-size="14.00" fill="#000000">value = [0.231, 0.769]</text>
<text text-anchor="middle" x="542.1807" y="-227.8" font-family="Helvetica,sans-Serif" font-size="14.00" fill="#000000">class = high_registrations</text>
</g>
<!-- 2&#45;&gt;8 -->
<g id="edge8" class="edge">
<title>2&#45;&gt;8</title>
<path fill="none" stroke="#000000" d="M542.1807,-327.7677C542.1807,-317.3338 542.1807,-306.0174 542.1807,-295.4215"/>
<polygon fill="#000000" stroke="#000000" points="545.6808,-295.1252 542.1807,-285.1252 538.6808,-295.1252 545.6808,-295.1252"/>
</g>
<!-- 4 -->
<g id="node5" class="node">
<title>4</title>
<path fill="#e58139" fill-opacity="0.984314" stroke="#000000" d="M278.7904,-178C278.7904,-178 101.5709,-178 101.5709,-178 95.5709,-178 89.5709,-172 89.5709,-166 89.5709,-166 89.5709,-112 89.5709,-112 89.5709,-106 95.5709,-100 101.5709,-100 101.5709,-100 278.7904,-100 278.7904,-100 284.7904,-100 290.7904,-106 290.7904,-112 290.7904,-112 290.7904,-166 290.7904,-166 290.7904,-172 284.7904,-178 278.7904,-178"/>
<text text-anchor="middle" x="190.1807" y="-162.8" font-family="Helvetica,sans-Serif" font-size="14.00" fill="#000000">community_school &lt;= 16.083</text>
<text text-anchor="middle" x="190.1807" y="-148.8" font-family="Helvetica,sans-Serif" font-size="14.00" fill="#000000">gini = 0.031</text>
<text text-anchor="middle" x="190.1807" y="-134.8" font-family="Helvetica,sans-Serif" font-size="14.00" fill="#000000">samples = 53.7%</text>
<text text-anchor="middle" x="190.1807" y="-120.8" font-family="Helvetica,sans-Serif" font-size="14.00" fill="#000000">value = [0.984, 0.016]</text>
<text text-anchor="middle" x="190.1807" y="-106.8" font-family="Helvetica,sans-Serif" font-size="14.00" fill="#000000">class = not_high_registrations</text>
</g>
<!-- 3&#45;&gt;4 -->
<g id="edge4" class="edge">
<title>3&#45;&gt;4</title>
<path fill="none" stroke="#000000" d="M257.7339,-213.7677C249.6416,-204.8111 240.9617,-195.2043 232.6104,-185.9611"/>
<polygon fill="#000000" stroke="#000000" points="234.9938,-183.3782 225.6928,-178.3046 229.7998,-188.0711 234.9938,-183.3782"/>
</g>
<!-- 7 -->
<g id="node8" class="node">
<title>7</title>
<path fill="#399de5" fill-opacity="0.698039" stroke="#000000" d="M471.5424,-171C471.5424,-171 320.819,-171 320.819,-171 314.819,-171 308.819,-165 308.819,-159 308.819,-159 308.819,-119 308.819,-119 308.819,-113 314.819,-107 320.819,-107 320.819,-107 471.5424,-107 471.5424,-107 477.5424,-107 483.5424,-113 483.5424,-119 483.5424,-119 483.5424,-159 483.5424,-159 483.5424,-165 477.5424,-171 471.5424,-171"/>
<text text-anchor="middle" x="396.1807" y="-155.8" font-family="Helvetica,sans-Serif" font-size="14.00" fill="#000000">gini = 0.355</text>
<text text-anchor="middle" x="396.1807" y="-141.8" font-family="Helvetica,sans-Serif" font-size="14.00" fill="#000000">samples = 0.8%</text>
<text text-anchor="middle" x="396.1807" y="-127.8" font-family="Helvetica,sans-Serif" font-size="14.00" fill="#000000">value = [0.231, 0.769]</text>
<text text-anchor="middle" x="396.1807" y="-113.8" font-family="Helvetica,sans-Serif" font-size="14.00" fill="#000000">class = high_registrations</text>
</g>
<!-- 3&#45;&gt;7 -->
<g id="edge7" class="edge">
<title>3&#45;&gt;7</title>
<path fill="none" stroke="#000000" d="M328.6274,-213.7677C338.8401,-202.4643 349.9886,-190.1252 360.2314,-178.7885"/>
<polygon fill="#000000" stroke="#000000" points="363.0482,-180.8916 367.1553,-171.1252 357.8542,-176.1988 363.0482,-180.8916"/>
</g>
<!-- 5 -->
<g id="node6" class="node">
<title>5</title>
<path fill="#399de5" fill-opacity="0.698039" stroke="#000000" d="M162.5424,-64C162.5424,-64 11.819,-64 11.819,-64 5.819,-64 -.181,-58 -.181,-52 -.181,-52 -.181,-12 -.181,-12 -.181,-6 5.819,0 11.819,0 11.819,0 162.5424,0 162.5424,0 168.5424,0 174.5424,-6 174.5424,-12 174.5424,-12 174.5424,-52 174.5424,-52 174.5424,-58 168.5424,-64 162.5424,-64"/>
<text text-anchor="middle" x="87.1807" y="-48.8" font-family="Helvetica,sans-Serif" font-size="14.00" fill="#000000">gini = 0.355</text>
<text text-anchor="middle" x="87.1807" y="-34.8" font-family="Helvetica,sans-Serif" font-size="14.00" fill="#000000">samples = 0.8%</text>
<text text-anchor="middle" x="87.1807" y="-20.8" font-family="Helvetica,sans-Serif" font-size="14.00" fill="#000000">value = [0.231, 0.769]</text>
<text text-anchor="middle" x="87.1807" y="-6.8" font-family="Helvetica,sans-Serif" font-size="14.00" fill="#000000">class = high_registrations</text>
</g>
<!-- 4&#45;&gt;5 -->
<g id="edge5" class="edge">
<title>4&#45;&gt;5</title>
<path fill="none" stroke="#000000" d="M152.4121,-99.7647C143.5326,-90.5404 134.0656,-80.7057 125.1762,-71.4711"/>
<polygon fill="#000000" stroke="#000000" points="127.6499,-68.994 118.1932,-64.2169 122.6068,-73.8487 127.6499,-68.994"/>
</g>
<!-- 6 -->
<g id="node7" class="node">
<title>6</title>
<path fill="#e58139" stroke="#000000" d="M381.7904,-64C381.7904,-64 204.5709,-64 204.5709,-64 198.5709,-64 192.5709,-58 192.5709,-52 192.5709,-52 192.5709,-12 192.5709,-12 192.5709,-6 198.5709,0 204.5709,0 204.5709,0 381.7904,0 381.7904,0 387.7904,0 393.7904,-6 393.7904,-12 393.7904,-12 393.7904,-52 393.7904,-52 393.7904,-58 387.7904,-64 381.7904,-64"/>
<text text-anchor="middle" x="293.1807" y="-48.8" font-family="Helvetica,sans-Serif" font-size="14.00" fill="#000000">gini = 0.0</text>
<text text-anchor="middle" x="293.1807" y="-34.8" font-family="Helvetica,sans-Serif" font-size="14.00" fill="#000000">samples = 52.9%</text>
<text text-anchor="middle" x="293.1807" y="-20.8" font-family="Helvetica,sans-Serif" font-size="14.00" fill="#000000">value = [1.0, 0.0]</text>
<text text-anchor="middle" x="293.1807" y="-6.8" font-family="Helvetica,sans-Serif" font-size="14.00" fill="#000000">class = not_high_registrations</text>
</g>
<!-- 4&#45;&gt;6 -->
<g id="edge6" class="edge">
<title>4&#45;&gt;6</title>
<path fill="none" stroke="#000000" d="M227.9492,-99.7647C236.8287,-90.5404 246.2957,-80.7057 255.1851,-71.4711"/>
<polygon fill="#000000" stroke="#000000" points="257.7546,-73.8487 262.1682,-64.2169 252.7114,-68.994 257.7546,-73.8487"/>
</g>
<!-- 10 -->
<g id="node11" class="node">
<title>10</title>
<path fill="#399de5" stroke="#000000" d="M809.5424,-285C809.5424,-285 658.819,-285 658.819,-285 652.819,-285 646.819,-279 646.819,-273 646.819,-273 646.819,-233 646.819,-233 646.819,-227 652.819,-221 658.819,-221 658.819,-221 809.5424,-221 809.5424,-221 815.5424,-221 821.5424,-227 821.5424,-233 821.5424,-233 821.5424,-273 821.5424,-273 821.5424,-279 815.5424,-285 809.5424,-285"/>
<text text-anchor="middle" x="734.1807" y="-269.8" font-family="Helvetica,sans-Serif" font-size="14.00" fill="#000000">gini = 0.0</text>
<text text-anchor="middle" x="734.1807" y="-255.8" font-family="Helvetica,sans-Serif" font-size="14.00" fill="#000000">samples = 0.8%</text>
<text text-anchor="middle" x="734.1807" y="-241.8" font-family="Helvetica,sans-Serif" font-size="14.00" fill="#000000">value = [0.0, 1.0]</text>
<text text-anchor="middle" x="734.1807" y="-227.8" font-family="Helvetica,sans-Serif" font-size="14.00" fill="#000000">class = high_registrations</text>
</g>
<!-- 9&#45;&gt;10 -->
<g id="edge10" class="edge">
<title>9&#45;&gt;10</title>
<path fill="none" stroke="#000000" d="M843.7087,-327.7677C826.195,-315.8122 806.9839,-302.698 789.6082,-290.8368"/>
<polygon fill="#000000" stroke="#000000" points="791.4737,-287.8725 781.2413,-285.1252 787.5271,-293.6539 791.4737,-287.8725"/>
</g>
<!-- 11 -->
<g id="node12" class="node">
<title>11</title>
<path fill="#e58139" stroke="#000000" d="M1028.7904,-285C1028.7904,-285 851.5709,-285 851.5709,-285 845.5709,-285 839.5709,-279 839.5709,-273 839.5709,-273 839.5709,-233 839.5709,-233 839.5709,-227 845.5709,-221 851.5709,-221 851.5709,-221 1028.7904,-221 1028.7904,-221 1034.7904,-221 1040.7904,-227 1040.7904,-233 1040.7904,-233 1040.7904,-273 1040.7904,-273 1040.7904,-279 1034.7904,-285 1028.7904,-285"/>
<text text-anchor="middle" x="940.1807" y="-269.8" font-family="Helvetica,sans-Serif" font-size="14.00" fill="#000000">gini = 0.0</text>
<text text-anchor="middle" x="940.1807" y="-255.8" font-family="Helvetica,sans-Serif" font-size="14.00" fill="#000000">samples = 1.2%</text>
<text text-anchor="middle" x="940.1807" y="-241.8" font-family="Helvetica,sans-Serif" font-size="14.00" fill="#000000">value = [1.0, 0.0]</text>
<text text-anchor="middle" x="940.1807" y="-227.8" font-family="Helvetica,sans-Serif" font-size="14.00" fill="#000000">class = not_high_registrations</text>
</g>
<!-- 9&#45;&gt;11 -->
<g id="edge11" class="edge">
<title>9&#45;&gt;11</title>
<path fill="none" stroke="#000000" d="M914.6023,-327.7677C918.2461,-317.1164 922.2046,-305.5455 925.8943,-294.7603"/>
<polygon fill="#000000" stroke="#000000" points="929.2651,-295.7198 929.1905,-285.1252 922.6419,-293.4539 929.2651,-295.7198"/>
</g>
<!-- 13 -->
<g id="node14" class="node">
<title>13</title>
<path fill="#e58139" fill-opacity="0.192157" stroke="#000000" d="M1286.7904,-406C1286.7904,-406 1109.5709,-406 1109.5709,-406 1103.5709,-406 1097.5709,-400 1097.5709,-394 1097.5709,-394 1097.5709,-340 1097.5709,-340 1097.5709,-334 1103.5709,-328 1109.5709,-328 1109.5709,-328 1286.7904,-328 1286.7904,-328 1292.7904,-328 1298.7904,-334 1298.7904,-340 1298.7904,-340 1298.7904,-394 1298.7904,-394 1298.7904,-400 1292.7904,-406 1286.7904,-406"/>
<text text-anchor="middle" x="1198.1807" y="-390.8" font-family="Helvetica,sans-Serif" font-size="14.00" fill="#000000">in_manhattan &lt;= 309.0</text>
<text text-anchor="middle" x="1198.1807" y="-376.8" font-family="Helvetica,sans-Serif" font-size="14.00" fill="#000000">gini = 0.494</text>
<text text-anchor="middle" x="1198.1807" y="-362.8" font-family="Helvetica,sans-Serif" font-size="14.00" fill="#000000">samples = 11.9%</text>
<text text-anchor="middle" x="1198.1807" y="-348.8" font-family="Helvetica,sans-Serif" font-size="14.00" fill="#000000">value = [0.553, 0.447]</text>
<text text-anchor="middle" x="1198.1807" y="-334.8" font-family="Helvetica,sans-Serif" font-size="14.00" fill="#000000">class = not_high_registrations</text>
</g>
<!-- 12&#45;&gt;13 -->
<g id="edge13" class="edge">
<title>12&#45;&gt;13</title>
<path fill="none" stroke="#000000" d="M1198.1807,-441.7677C1198.1807,-433.6172 1198.1807,-424.9283 1198.1807,-416.4649"/>
<polygon fill="#000000" stroke="#000000" points="1201.6808,-416.3046 1198.1807,-406.3046 1194.6808,-416.3047 1201.6808,-416.3046"/>
</g>
<!-- 22 -->
<g id="node23" class="node">
<title>22</title>
<path fill="#399de5" fill-opacity="0.792157" stroke="#000000" d="M1905.0684,-406C1905.0684,-406 1593.2929,-406 1593.2929,-406 1587.2929,-406 1581.2929,-400 1581.2929,-394 1581.2929,-394 1581.2929,-340 1581.2929,-340 1581.2929,-334 1587.2929,-328 1593.2929,-328 1593.2929,-328 1905.0684,-328 1905.0684,-328 1911.0684,-328 1917.0684,-334 1917.0684,-340 1917.0684,-340 1917.0684,-394 1917.0684,-394 1917.0684,-400 1911.0684,-406 1905.0684,-406"/>
<text text-anchor="middle" x="1749.1807" y="-390.8" font-family="Helvetica,sans-Serif" font-size="14.00" fill="#000000">grade_7_ela_4s_black_or_african_american &lt;= 0.5</text>
<text text-anchor="middle" x="1749.1807" y="-376.8" font-family="Helvetica,sans-Serif" font-size="14.00" fill="#000000">gini = 0.285</text>
<text text-anchor="middle" x="1749.1807" y="-362.8" font-family="Helvetica,sans-Serif" font-size="14.00" fill="#000000">samples = 30.7%</text>
<text text-anchor="middle" x="1749.1807" y="-348.8" font-family="Helvetica,sans-Serif" font-size="14.00" fill="#000000">value = [0.172, 0.828]</text>
<text text-anchor="middle" x="1749.1807" y="-334.8" font-family="Helvetica,sans-Serif" font-size="14.00" fill="#000000">class = high_registrations</text>
</g>
<!-- 12&#45;&gt;22 -->
<g id="edge22" class="edge">
<title>12&#45;&gt;22</title>
<path fill="none" stroke="#000000" d="M1320.4654,-455.6997C1394.1942,-440.4455 1489.389,-420.75 1571.3408,-403.7945"/>
<polygon fill="#000000" stroke="#000000" points="1572.1835,-407.1943 1581.267,-401.7408 1570.7652,-400.3395 1572.1835,-407.1943"/>
</g>
<!-- 14 -->
<g id="node15" class="node">
<title>14</title>
<path fill="#e58139" fill-opacity="0.815686" stroke="#000000" d="M1248.7904,-292C1248.7904,-292 1071.5709,-292 1071.5709,-292 1065.5709,-292 1059.5709,-286 1059.5709,-280 1059.5709,-280 1059.5709,-226 1059.5709,-226 1059.5709,-220 1065.5709,-214 1071.5709,-214 1071.5709,-214 1248.7904,-214 1248.7904,-214 1254.7904,-214 1260.7904,-220 1260.7904,-226 1260.7904,-226 1260.7904,-280 1260.7904,-280 1260.7904,-286 1254.7904,-292 1248.7904,-292"/>
<text text-anchor="middle" x="1160.1807" y="-276.8" font-family="Helvetica,sans-Serif" font-size="14.00" fill="#000000">in_staten &lt;= 25.0</text>
<text text-anchor="middle" x="1160.1807" y="-262.8" font-family="Helvetica,sans-Serif" font-size="14.00" fill="#000000">gini = 0.263</text>
<text text-anchor="middle" x="1160.1807" y="-248.8" font-family="Helvetica,sans-Serif" font-size="14.00" fill="#000000">samples = 9.8%</text>
<text text-anchor="middle" x="1160.1807" y="-234.8" font-family="Helvetica,sans-Serif" font-size="14.00" fill="#000000">value = [0.844, 0.156]</text>
<text text-anchor="middle" x="1160.1807" y="-220.8" font-family="Helvetica,sans-Serif" font-size="14.00" fill="#000000">class = not_high_registrations</text>
</g>
<!-- 13&#45;&gt;14 -->
<g id="edge14" class="edge">
<title>13&#45;&gt;14</title>
<path fill="none" stroke="#000000" d="M1185.1032,-327.7677C1182.3267,-319.4381 1179.3627,-310.5461 1176.4831,-301.9072"/>
<polygon fill="#000000" stroke="#000000" points="1179.765,-300.6847 1173.2822,-292.3046 1173.1242,-302.8983 1179.765,-300.6847"/>
</g>
<!-- 19 -->
<g id="node20" class="node">
<title>19</title>
<path fill="#399de5" fill-opacity="0.956863" stroke="#000000" d="M1507.6104,-292C1507.6104,-292 1290.751,-292 1290.751,-292 1284.751,-292 1278.751,-286 1278.751,-280 1278.751,-280 1278.751,-226 1278.751,-226 1278.751,-220 1284.751,-214 1290.751,-214 1290.751,-214 1507.6104,-214 1507.6104,-214 1513.6104,-214 1519.6104,-220 1519.6104,-226 1519.6104,-226 1519.6104,-280 1519.6104,-280 1519.6104,-286 1513.6104,-292 1507.6104,-292"/>
<text text-anchor="middle" x="1399.1807" y="-276.8" font-family="Helvetica,sans-Serif" font-size="14.00" fill="#000000">number_of_classes_english &lt;= 21.5</text>
<text text-anchor="middle" x="1399.1807" y="-262.8" font-family="Helvetica,sans-Serif" font-size="14.00" fill="#000000">gini = 0.079</text>
<text text-anchor="middle" x="1399.1807" y="-248.8" font-family="Helvetica,sans-Serif" font-size="14.00" fill="#000000">samples = 2.0%</text>
<text text-anchor="middle" x="1399.1807" y="-234.8" font-family="Helvetica,sans-Serif" font-size="14.00" fill="#000000">value = [0.041, 0.959]</text>
<text text-anchor="middle" x="1399.1807" y="-220.8" font-family="Helvetica,sans-Serif" font-size="14.00" fill="#000000">class = high_registrations</text>
</g>
<!-- 13&#45;&gt;19 -->
<g id="edge19" class="edge">
<title>13&#45;&gt;19</title>
<path fill="none" stroke="#000000" d="M1267.0723,-327.9272C1284.6515,-317.9569 1303.6672,-307.1718 1321.6468,-296.9744"/>
<polygon fill="#000000" stroke="#000000" points="1323.4074,-299.9997 1330.3791,-292.0218 1319.954,-293.9108 1323.4074,-299.9997"/>
</g>
<!-- 15 -->
<g id="node16" class="node">
<title>15</title>
<path fill="#e58139" stroke="#000000" d="M1042.7904,-171C1042.7904,-171 865.5709,-171 865.5709,-171 859.5709,-171 853.5709,-165 853.5709,-159 853.5709,-159 853.5709,-119 853.5709,-119 853.5709,-113 859.5709,-107 865.5709,-107 865.5709,-107 1042.7904,-107 1042.7904,-107 1048.7904,-107 1054.7904,-113 1054.7904,-119 1054.7904,-119 1054.7904,-159 1054.7904,-159 1054.7904,-165 1048.7904,-171 1042.7904,-171"/>
<text text-anchor="middle" x="954.1807" y="-155.8" font-family="Helvetica,sans-Serif" font-size="14.00" fill="#000000">gini = 0.0</text>
<text text-anchor="middle" x="954.1807" y="-141.8" font-family="Helvetica,sans-Serif" font-size="14.00" fill="#000000">samples = 8.2%</text>
<text text-anchor="middle" x="954.1807" y="-127.8" font-family="Helvetica,sans-Serif" font-size="14.00" fill="#000000">value = [1.0, 0.0]</text>
<text text-anchor="middle" x="954.1807" y="-113.8" font-family="Helvetica,sans-Serif" font-size="14.00" fill="#000000">class = not_high_registrations</text>
</g>
<!-- 14&#45;&gt;15 -->
<g id="edge15" class="edge">
<title>14&#45;&gt;15</title>
<path fill="none" stroke="#000000" d="M1089.5754,-213.9272C1067.3618,-201.6342 1042.9102,-188.1028 1020.9703,-175.9612"/>
<polygon fill="#000000" stroke="#000000" points="1022.5015,-172.8085 1012.0572,-171.0288 1019.1121,-178.9332 1022.5015,-172.8085"/>
</g>
<!-- 16 -->
<g id="node17" class="node">
<title>16</title>
<path fill="#399de5" fill-opacity="0.549020" stroke="#000000" d="M1235.5424,-178C1235.5424,-178 1084.819,-178 1084.819,-178 1078.819,-178 1072.819,-172 1072.819,-166 1072.819,-166 1072.819,-112 1072.819,-112 1072.819,-106 1078.819,-100 1084.819,-100 1084.819,-100 1235.5424,-100 1235.5424,-100 1241.5424,-100 1247.5424,-106 1247.5424,-112 1247.5424,-112 1247.5424,-166 1247.5424,-166 1247.5424,-172 1241.5424,-178 1235.5424,-178"/>
<text text-anchor="middle" x="1160.1807" y="-162.8" font-family="Helvetica,sans-Serif" font-size="14.00" fill="#000000">in_brooklyn &lt;= 219.0</text>
<text text-anchor="middle" x="1160.1807" y="-148.8" font-family="Helvetica,sans-Serif" font-size="14.00" fill="#000000">gini = 0.428</text>
<text text-anchor="middle" x="1160.1807" y="-134.8" font-family="Helvetica,sans-Serif" font-size="14.00" fill="#000000">samples = 1.6%</text>
<text text-anchor="middle" x="1160.1807" y="-120.8" font-family="Helvetica,sans-Serif" font-size="14.00" fill="#000000">value = [0.311, 0.689]</text>
<text text-anchor="middle" x="1160.1807" y="-106.8" font-family="Helvetica,sans-Serif" font-size="14.00" fill="#000000">class = high_registrations</text>
</g>
<!-- 14&#45;&gt;16 -->
<g id="edge16" class="edge">
<title>14&#45;&gt;16</title>
<path fill="none" stroke="#000000" d="M1160.1807,-213.7677C1160.1807,-205.6172 1160.1807,-196.9283 1160.1807,-188.4649"/>
<polygon fill="#000000" stroke="#000000" points="1163.6808,-188.3046 1160.1807,-178.3046 1156.6808,-188.3047 1163.6808,-188.3046"/>
</g>
<!-- 17 -->
<g id="node18" class="node">
<title>17</title>
<path fill="#399de5" stroke="#000000" d="M1110.5424,-64C1110.5424,-64 959.819,-64 959.819,-64 953.819,-64 947.819,-58 947.819,-52 947.819,-52 947.819,-12 947.819,-12 947.819,-6 953.819,0 959.819,0 959.819,0 1110.5424,0 1110.5424,0 1116.5424,0 1122.5424,-6 1122.5424,-12 1122.5424,-12 1122.5424,-52 1122.5424,-52 1122.5424,-58 1116.5424,-64 1110.5424,-64"/>
<text text-anchor="middle" x="1035.1807" y="-48.8" font-family="Helvetica,sans-Serif" font-size="14.00" fill="#000000">gini = 0.0</text>
<text text-anchor="middle" x="1035.1807" y="-34.8" font-family="Helvetica,sans-Serif" font-size="14.00" fill="#000000">samples = 0.8%</text>
<text text-anchor="middle" x="1035.1807" y="-20.8" font-family="Helvetica,sans-Serif" font-size="14.00" fill="#000000">value = [0.0, 1.0]</text>
<text text-anchor="middle" x="1035.1807" y="-6.8" font-family="Helvetica,sans-Serif" font-size="14.00" fill="#000000">class = high_registrations</text>
</g>
<!-- 16&#45;&gt;17 -->
<g id="edge17" class="edge">
<title>16&#45;&gt;17</title>
<path fill="none" stroke="#000000" d="M1114.3451,-99.7647C1103.3556,-90.3577 1091.6246,-80.316 1080.6517,-70.9232"/>
<polygon fill="#000000" stroke="#000000" points="1082.6901,-68.0609 1072.8172,-64.2169 1078.138,-73.3787 1082.6901,-68.0609"/>
</g>
<!-- 18 -->
<g id="node19" class="node">
<title>18</title>
<path fill="#e58139" stroke="#000000" d="M1329.7904,-64C1329.7904,-64 1152.5709,-64 1152.5709,-64 1146.5709,-64 1140.5709,-58 1140.5709,-52 1140.5709,-52 1140.5709,-12 1140.5709,-12 1140.5709,-6 1146.5709,0 1152.5709,0 1152.5709,0 1329.7904,0 1329.7904,0 1335.7904,0 1341.7904,-6 1341.7904,-12 1341.7904,-12 1341.7904,-52 1341.7904,-52 1341.7904,-58 1335.7904,-64 1329.7904,-64"/>
<text text-anchor="middle" x="1241.1807" y="-48.8" font-family="Helvetica,sans-Serif" font-size="14.00" fill="#000000">gini = 0.0</text>
<text text-anchor="middle" x="1241.1807" y="-34.8" font-family="Helvetica,sans-Serif" font-size="14.00" fill="#000000">samples = 0.8%</text>
<text text-anchor="middle" x="1241.1807" y="-20.8" font-family="Helvetica,sans-Serif" font-size="14.00" fill="#000000">value = [1.0, 0.0]</text>
<text text-anchor="middle" x="1241.1807" y="-6.8" font-family="Helvetica,sans-Serif" font-size="14.00" fill="#000000">class = not_high_registrations</text>
</g>
<!-- 16&#45;&gt;18 -->
<g id="edge18" class="edge">
<title>16&#45;&gt;18</title>
<path fill="none" stroke="#000000" d="M1189.8821,-99.7647C1196.6576,-90.8144 1203.8681,-81.2894 1210.6766,-72.2955"/>
<polygon fill="#000000" stroke="#000000" points="1213.547,-74.3025 1216.7922,-64.2169 1207.9659,-70.0775 1213.547,-74.3025"/>
</g>
<!-- 20 -->
<g id="node21" class="node">
<title>20</title>
<path fill="#399de5" stroke="#000000" d="M1427.5424,-171C1427.5424,-171 1276.819,-171 1276.819,-171 1270.819,-171 1264.819,-165 1264.819,-159 1264.819,-159 1264.819,-119 1264.819,-119 1264.819,-113 1270.819,-107 1276.819,-107 1276.819,-107 1427.5424,-107 1427.5424,-107 1433.5424,-107 1439.5424,-113 1439.5424,-119 1439.5424,-119 1439.5424,-159 1439.5424,-159 1439.5424,-165 1433.5424,-171 1427.5424,-171"/>
<text text-anchor="middle" x="1352.1807" y="-155.8" font-family="Helvetica,sans-Serif" font-size="14.00" fill="#000000">gini = 0.0</text>
<text text-anchor="middle" x="1352.1807" y="-141.8" font-family="Helvetica,sans-Serif" font-size="14.00" fill="#000000">samples = 1.2%</text>
<text text-anchor="middle" x="1352.1807" y="-127.8" font-family="Helvetica,sans-Serif" font-size="14.00" fill="#000000">value = [0.0, 1.0]</text>
<text text-anchor="middle" x="1352.1807" y="-113.8" font-family="Helvetica,sans-Serif" font-size="14.00" fill="#000000">class = high_registrations</text>
</g>
<!-- 19&#45;&gt;20 -->
<g id="edge20" class="edge">
<title>19&#45;&gt;20</title>
<path fill="none" stroke="#000000" d="M1383.0059,-213.7677C1378.5698,-203.0078 1373.7468,-191.3093 1369.2616,-180.4303"/>
<polygon fill="#000000" stroke="#000000" points="1372.4727,-179.0362 1365.4253,-171.1252 1366.0011,-181.7044 1372.4727,-179.0362"/>
</g>
<!-- 21 -->
<g id="node22" class="node">
<title>21</title>
<path fill="#399de5" fill-opacity="0.698039" stroke="#000000" d="M1619.5424,-171C1619.5424,-171 1468.819,-171 1468.819,-171 1462.819,-171 1456.819,-165 1456.819,-159 1456.819,-159 1456.819,-119 1456.819,-119 1456.819,-113 1462.819,-107 1468.819,-107 1468.819,-107 1619.5424,-107 1619.5424,-107 1625.5424,-107 1631.5424,-113 1631.5424,-119 1631.5424,-119 1631.5424,-159 1631.5424,-159 1631.5424,-165 1625.5424,-171 1619.5424,-171"/>
<text text-anchor="middle" x="1544.1807" y="-155.8" font-family="Helvetica,sans-Serif" font-size="14.00" fill="#000000">gini = 0.355</text>
<text text-anchor="middle" x="1544.1807" y="-141.8" font-family="Helvetica,sans-Serif" font-size="14.00" fill="#000000">samples = 0.8%</text>
<text text-anchor="middle" x="1544.1807" y="-127.8" font-family="Helvetica,sans-Serif" font-size="14.00" fill="#000000">value = [0.231, 0.769]</text>
<text text-anchor="middle" x="1544.1807" y="-113.8" font-family="Helvetica,sans-Serif" font-size="14.00" fill="#000000">class = high_registrations</text>
</g>
<!-- 19&#45;&gt;21 -->
<g id="edge21" class="edge">
<title>19&#45;&gt;21</title>
<path fill="none" stroke="#000000" d="M1449.0814,-213.7677C1464.0115,-202.0296 1480.3622,-189.1745 1495.2305,-177.485"/>
<polygon fill="#000000" stroke="#000000" points="1497.6216,-180.0573 1503.3197,-171.1252 1493.2951,-174.5544 1497.6216,-180.0573"/>
</g>
<!-- 23 -->
<g id="node24" class="node">
<title>23</title>
<path fill="#399de5" fill-opacity="0.819608" stroke="#000000" d="M1824.5424,-292C1824.5424,-292 1673.819,-292 1673.819,-292 1667.819,-292 1661.819,-286 1661.819,-280 1661.819,-280 1661.819,-226 1661.819,-226 1661.819,-220 1667.819,-214 1673.819,-214 1673.819,-214 1824.5424,-214 1824.5424,-214 1830.5424,-214 1836.5424,-220 1836.5424,-226 1836.5424,-226 1836.5424,-280 1836.5424,-280 1836.5424,-286 1830.5424,-292 1824.5424,-292"/>
<text text-anchor="middle" x="1749.1807" y="-276.8" font-family="Helvetica,sans-Serif" font-size="14.00" fill="#000000">trust_percent &lt;= 17.0</text>
<text text-anchor="middle" x="1749.1807" y="-262.8" font-family="Helvetica,sans-Serif" font-size="14.00" fill="#000000">gini = 0.259</text>
<text text-anchor="middle" x="1749.1807" y="-248.8" font-family="Helvetica,sans-Serif" font-size="14.00" fill="#000000">samples = 29.1%</text>
<text text-anchor="middle" x="1749.1807" y="-234.8" font-family="Helvetica,sans-Serif" font-size="14.00" fill="#000000">value = [0.153, 0.847]</text>
<text text-anchor="middle" x="1749.1807" y="-220.8" font-family="Helvetica,sans-Serif" font-size="14.00" fill="#000000">class = high_registrations</text>
</g>
<!-- 22&#45;&gt;23 -->
<g id="edge23" class="edge">
<title>22&#45;&gt;23</title>
<path fill="none" stroke="#000000" d="M1749.1807,-327.7677C1749.1807,-319.6172 1749.1807,-310.9283 1749.1807,-302.4649"/>
<polygon fill="#000000" stroke="#000000" points="1752.6808,-302.3046 1749.1807,-292.3046 1745.6808,-302.3047 1752.6808,-302.3046"/>
</g>
<!-- 30 -->
<g id="node31" class="node">
<title>30</title>
<path fill="#e58139" stroke="#000000" d="M2043.7904,-285C2043.7904,-285 1866.5709,-285 1866.5709,-285 1860.5709,-285 1854.5709,-279 1854.5709,-273 1854.5709,-273 1854.5709,-233 1854.5709,-233 1854.5709,-227 1860.5709,-221 1866.5709,-221 1866.5709,-221 2043.7904,-221 2043.7904,-221 2049.7904,-221 2055.7904,-227 2055.7904,-233 2055.7904,-233 2055.7904,-273 2055.7904,-273 2055.7904,-279 2049.7904,-285 2043.7904,-285"/>
<text text-anchor="middle" x="1955.1807" y="-269.8" font-family="Helvetica,sans-Serif" font-size="14.00" fill="#000000">gini = 0.0</text>
<text text-anchor="middle" x="1955.1807" y="-255.8" font-family="Helvetica,sans-Serif" font-size="14.00" fill="#000000">samples = 1.6%</text>
<text text-anchor="middle" x="1955.1807" y="-241.8" font-family="Helvetica,sans-Serif" font-size="14.00" fill="#000000">value = [1.0, 0.0]</text>
<text text-anchor="middle" x="1955.1807" y="-227.8" font-family="Helvetica,sans-Serif" font-size="14.00" fill="#000000">class = not_high_registrations</text>
</g>
<!-- 22&#45;&gt;30 -->
<g id="edge30" class="edge">
<title>22&#45;&gt;30</title>
<path fill="none" stroke="#000000" d="M1819.786,-327.9272C1841.9995,-315.6342 1866.4511,-302.1028 1888.3911,-289.9612"/>
<polygon fill="#000000" stroke="#000000" points="1890.2492,-292.9332 1897.3041,-285.0288 1886.8598,-286.8085 1890.2492,-292.9332"/>
</g>
<!-- 24 -->
<g id="node25" class="node">
<title>24</title>
<path fill="#399de5" fill-opacity="0.854902" stroke="#000000" d="M1837.6627,-178C1837.6627,-178 1660.6986,-178 1660.6986,-178 1654.6986,-178 1648.6986,-172 1648.6986,-166 1648.6986,-166 1648.6986,-112 1648.6986,-112 1648.6986,-106 1654.6986,-100 1660.6986,-100 1660.6986,-100 1837.6627,-100 1837.6627,-100 1843.6627,-100 1849.6627,-106 1849.6627,-112 1849.6627,-112 1849.6627,-166 1849.6627,-166 1849.6627,-172 1843.6627,-178 1837.6627,-178"/>
<text text-anchor="middle" x="1749.1807" y="-162.8" font-family="Helvetica,sans-Serif" font-size="14.00" fill="#000000">grade_7_ela_4s_white &lt;= 1.5</text>
<text text-anchor="middle" x="1749.1807" y="-148.8" font-family="Helvetica,sans-Serif" font-size="14.00" fill="#000000">gini = 0.222</text>
<text text-anchor="middle" x="1749.1807" y="-134.8" font-family="Helvetica,sans-Serif" font-size="14.00" fill="#000000">samples = 27.5%</text>
<text text-anchor="middle" x="1749.1807" y="-120.8" font-family="Helvetica,sans-Serif" font-size="14.00" fill="#000000">value = [0.127, 0.873]</text>
<text text-anchor="middle" x="1749.1807" y="-106.8" font-family="Helvetica,sans-Serif" font-size="14.00" fill="#000000">class = high_registrations</text>
</g>
<!-- 23&#45;&gt;24 -->
<g id="edge24" class="edge">
<title>23&#45;&gt;24</title>
<path fill="none" stroke="#000000" d="M1749.1807,-213.7677C1749.1807,-205.6172 1749.1807,-196.9283 1749.1807,-188.4649"/>
<polygon fill="#000000" stroke="#000000" points="1752.6808,-188.3046 1749.1807,-178.3046 1745.6808,-188.3047 1752.6808,-188.3046"/>
</g>
<!-- 27 -->
<g id="node28" class="node">
<title>27</title>
<path fill="#e58139" fill-opacity="0.584314" stroke="#000000" d="M2146.4239,-178C2146.4239,-178 1879.9374,-178 1879.9374,-178 1873.9374,-178 1867.9374,-172 1867.9374,-166 1867.9374,-166 1867.9374,-112 1867.9374,-112 1867.9374,-106 1873.9374,-100 1879.9374,-100 1879.9374,-100 2146.4239,-100 2146.4239,-100 2152.4239,-100 2158.4239,-106 2158.4239,-112 2158.4239,-112 2158.4239,-166 2158.4239,-166 2158.4239,-172 2152.4239,-178 2146.4239,-178"/>
<text text-anchor="middle" x="2013.1807" y="-162.8" font-family="Helvetica,sans-Serif" font-size="14.00" fill="#000000">number_of_students_social_studies &lt;= 58.5</text>
<text text-anchor="middle" x="2013.1807" y="-148.8" font-family="Helvetica,sans-Serif" font-size="14.00" fill="#000000">gini = 0.415</text>
<text text-anchor="middle" x="2013.1807" y="-134.8" font-family="Helvetica,sans-Serif" font-size="14.00" fill="#000000">samples = 1.6%</text>
<text text-anchor="middle" x="2013.1807" y="-120.8" font-family="Helvetica,sans-Serif" font-size="14.00" fill="#000000">value = [0.706, 0.294]</text>
<text text-anchor="middle" x="2013.1807" y="-106.8" font-family="Helvetica,sans-Serif" font-size="14.00" fill="#000000">class = not_high_registrations</text>
</g>
<!-- 23&#45;&gt;27 -->
<g id="edge27" class="edge">
<title>23&#45;&gt;27</title>
<path fill="none" stroke="#000000" d="M1836.7221,-215.198C1861.3188,-204.5767 1888.2472,-192.9485 1913.4951,-182.046"/>
<polygon fill="#000000" stroke="#000000" points="1914.9204,-185.243 1922.7135,-178.0654 1912.1453,-178.8166 1914.9204,-185.243"/>
</g>
<!-- 25 -->
<g id="node26" class="node">
<title>25</title>
<path fill="#e58139" stroke="#000000" d="M1649.7904,-64C1649.7904,-64 1472.5709,-64 1472.5709,-64 1466.5709,-64 1460.5709,-58 1460.5709,-52 1460.5709,-52 1460.5709,-12 1460.5709,-12 1460.5709,-6 1466.5709,0 1472.5709,0 1472.5709,0 1649.7904,0 1649.7904,0 1655.7904,0 1661.7904,-6 1661.7904,-12 1661.7904,-12 1661.7904,-52 1661.7904,-52 1661.7904,-58 1655.7904,-64 1649.7904,-64"/>
<text text-anchor="middle" x="1561.1807" y="-48.8" font-family="Helvetica,sans-Serif" font-size="14.00" fill="#000000">gini = 0.0</text>
<text text-anchor="middle" x="1561.1807" y="-34.8" font-family="Helvetica,sans-Serif" font-size="14.00" fill="#000000">samples = 1.6%</text>
<text text-anchor="middle" x="1561.1807" y="-20.8" font-family="Helvetica,sans-Serif" font-size="14.00" fill="#000000">value = [1.0, 0.0]</text>
<text text-anchor="middle" x="1561.1807" y="-6.8" font-family="Helvetica,sans-Serif" font-size="14.00" fill="#000000">class = not_high_registrations</text>
</g>
<!-- 24&#45;&gt;25 -->
<g id="edge25" class="edge">
<title>24&#45;&gt;25</title>
<path fill="none" stroke="#000000" d="M1680.5103,-99.9163C1662.9139,-89.9013 1644.0377,-79.158 1626.6095,-69.2388"/>
<polygon fill="#000000" stroke="#000000" points="1628.0643,-66.0396 1617.6421,-64.135 1624.6018,-72.1233 1628.0643,-66.0396"/>
</g>
<!-- 26 -->
<g id="node27" class="node">
<title>26</title>
<path fill="#399de5" fill-opacity="0.878431" stroke="#000000" d="M1842.5424,-64C1842.5424,-64 1691.819,-64 1691.819,-64 1685.819,-64 1679.819,-58 1679.819,-52 1679.819,-52 1679.819,-12 1679.819,-12 1679.819,-6 1685.819,0 1691.819,0 1691.819,0 1842.5424,0 1842.5424,0 1848.5424,0 1854.5424,-6 1854.5424,-12 1854.5424,-12 1854.5424,-52 1854.5424,-52 1854.5424,-58 1848.5424,-64 1842.5424,-64"/>
<text text-anchor="middle" x="1767.1807" y="-48.8" font-family="Helvetica,sans-Serif" font-size="14.00" fill="#000000">gini = 0.194</text>
<text text-anchor="middle" x="1767.1807" y="-34.8" font-family="Helvetica,sans-Serif" font-size="14.00" fill="#000000">samples = 25.8%</text>
<text text-anchor="middle" x="1767.1807" y="-20.8" font-family="Helvetica,sans-Serif" font-size="14.00" fill="#000000">value = [0.109, 0.891]</text>
<text text-anchor="middle" x="1767.1807" y="-6.8" font-family="Helvetica,sans-Serif" font-size="14.00" fill="#000000">class = high_registrations</text>
</g>
<!-- 24&#45;&gt;26 -->
<g id="edge26" class="edge">
<title>24&#45;&gt;26</title>
<path fill="none" stroke="#000000" d="M1755.781,-99.7647C1757.1791,-91.4537 1758.6606,-82.6472 1760.0765,-74.2305"/>
<polygon fill="#000000" stroke="#000000" points="1763.5535,-74.659 1761.761,-64.2169 1756.6505,-73.4977 1763.5535,-74.659"/>
</g>
<!-- 28 -->
<g id="node29" class="node">
<title>28</title>
<path fill="#399de5" fill-opacity="0.400000" stroke="#000000" d="M2070.5424,-64C2070.5424,-64 1919.819,-64 1919.819,-64 1913.819,-64 1907.819,-58 1907.819,-52 1907.819,-52 1907.819,-12 1907.819,-12 1907.819,-6 1913.819,0 1919.819,0 1919.819,0 2070.5424,0 2070.5424,0 2076.5424,0 2082.5424,-6 2082.5424,-12 2082.5424,-12 2082.5424,-52 2082.5424,-52 2082.5424,-58 2076.5424,-64 2070.5424,-64"/>
<text text-anchor="middle" x="1995.1807" y="-48.8" font-family="Helvetica,sans-Serif" font-size="14.00" fill="#000000">gini = 0.469</text>
<text text-anchor="middle" x="1995.1807" y="-34.8" font-family="Helvetica,sans-Serif" font-size="14.00" fill="#000000">samples = 0.8%</text>
<text text-anchor="middle" x="1995.1807" y="-20.8" font-family="Helvetica,sans-Serif" font-size="14.00" fill="#000000">value = [0.376, 0.624]</text>
<text text-anchor="middle" x="1995.1807" y="-6.8" font-family="Helvetica,sans-Serif" font-size="14.00" fill="#000000">class = high_registrations</text>
</g>
<!-- 27&#45;&gt;28 -->
<g id="edge28" class="edge">
<title>27&#45;&gt;28</title>
<path fill="none" stroke="#000000" d="M2006.5803,-99.7647C2005.1822,-91.4537 2003.7008,-82.6472 2002.2849,-74.2305"/>
<polygon fill="#000000" stroke="#000000" points="2005.7108,-73.4977 2000.6003,-64.2169 1998.8078,-74.659 2005.7108,-73.4977"/>
</g>
<!-- 29 -->
<g id="node30" class="node">
<title>29</title>
<path fill="#e58139" stroke="#000000" d="M2289.7904,-64C2289.7904,-64 2112.5709,-64 2112.5709,-64 2106.5709,-64 2100.5709,-58 2100.5709,-52 2100.5709,-52 2100.5709,-12 2100.5709,-12 2100.5709,-6 2106.5709,0 2112.5709,0 2112.5709,0 2289.7904,0 2289.7904,0 2295.7904,0 2301.7904,-6 2301.7904,-12 2301.7904,-12 2301.7904,-52 2301.7904,-52 2301.7904,-58 2295.7904,-64 2289.7904,-64"/>
<text text-anchor="middle" x="2201.1807" y="-48.8" font-family="Helvetica,sans-Serif" font-size="14.00" fill="#000000">gini = 0.0</text>
<text text-anchor="middle" x="2201.1807" y="-34.8" font-family="Helvetica,sans-Serif" font-size="14.00" fill="#000000">samples = 0.8%</text>
<text text-anchor="middle" x="2201.1807" y="-20.8" font-family="Helvetica,sans-Serif" font-size="14.00" fill="#000000">value = [1.0, 0.0]</text>
<text text-anchor="middle" x="2201.1807" y="-6.8" font-family="Helvetica,sans-Serif" font-size="14.00" fill="#000000">class = not_high_registrations</text>
</g>
<!-- 27&#45;&gt;29 -->
<g id="edge29" class="edge">
<title>27&#45;&gt;29</title>
<path fill="none" stroke="#000000" d="M2081.851,-99.9163C2099.4475,-89.9013 2118.3236,-79.158 2135.7518,-69.2388"/>
<polygon fill="#000000" stroke="#000000" points="2137.7595,-72.1233 2144.7192,-64.135 2134.297,-66.0396 2137.7595,-72.1233"/>
</g>
</g>
</svg>
