<?xml version="1.0" encoding="UTF-8" standalone="no"?>
<!DOCTYPE svg PUBLIC "-//W3C//DTD SVG 1.1//EN"
 "http://www.w3.org/Graphics/SVG/1.1/DTD/svg11.dtd">
<!-- Generated by graphviz version 2.40.1 (20161225.0304)
 -->
<!-- Title: Tree Pages: 1 -->
<svg width="1376pt" height="642pt"
 viewBox="0.00 0.00 1375.99 642.00" xmlns="http://www.w3.org/2000/svg" xmlns:xlink="http://www.w3.org/1999/xlink">
<g id="graph0" class="graph" transform="scale(1 1) rotate(0) translate(4 638)">
<title>Tree</title>
<polygon fill="#ffffff" stroke="transparent" points="-4,4 -4,-638 1371.9854,-638 1371.9854,4 -4,4"/>
<!-- 0 -->
<g id="node1" class="node">
<title>0</title>
<path fill="#399de5" fill-opacity="0.086275" stroke="#000000" d="M498.5424,-634C498.5424,-634 347.819,-634 347.819,-634 341.819,-634 335.819,-628 335.819,-622 335.819,-622 335.819,-568 335.819,-568 335.819,-562 341.819,-556 347.819,-556 347.819,-556 498.5424,-556 498.5424,-556 504.5424,-556 510.5424,-562 510.5424,-568 510.5424,-568 510.5424,-622 510.5424,-622 510.5424,-628 504.5424,-634 498.5424,-634"/>
<text text-anchor="middle" x="423.1807" y="-618.8" font-family="Helvetica,sans-Serif" font-size="14.00" fill="#000000">percent_asian &lt;= 2.445</text>
<text text-anchor="middle" x="423.1807" y="-604.8" font-family="Helvetica,sans-Serif" font-size="14.00" fill="#000000">gini = 0.499</text>
<text text-anchor="middle" x="423.1807" y="-590.8" font-family="Helvetica,sans-Serif" font-size="14.00" fill="#000000">samples = 100.0%</text>
<text text-anchor="middle" x="423.1807" y="-576.8" font-family="Helvetica,sans-Serif" font-size="14.00" fill="#000000">value = [0.478, 0.522]</text>
<text text-anchor="middle" x="423.1807" y="-562.8" font-family="Helvetica,sans-Serif" font-size="14.00" fill="#000000">class = high_registrations</text>
</g>
<!-- 1 -->
<g id="node2" class="node">
<title>1</title>
<path fill="#e58139" fill-opacity="0.980392" stroke="#000000" d="M381.7904,-520C381.7904,-520 204.5709,-520 204.5709,-520 198.5709,-520 192.5709,-514 192.5709,-508 192.5709,-508 192.5709,-454 192.5709,-454 192.5709,-448 198.5709,-442 204.5709,-442 204.5709,-442 381.7904,-442 381.7904,-442 387.7904,-442 393.7904,-448 393.7904,-454 393.7904,-454 393.7904,-508 393.7904,-508 393.7904,-514 387.7904,-520 381.7904,-520"/>
<text text-anchor="middle" x="293.1807" y="-504.8" font-family="Helvetica,sans-Serif" font-size="14.00" fill="#000000">gifted &lt;= 72.0</text>
<text text-anchor="middle" x="293.1807" y="-490.8" font-family="Helvetica,sans-Serif" font-size="14.00" fill="#000000">gini = 0.038</text>
<text text-anchor="middle" x="293.1807" y="-476.8" font-family="Helvetica,sans-Serif" font-size="14.00" fill="#000000">samples = 46.7%</text>
<text text-anchor="middle" x="293.1807" y="-462.8" font-family="Helvetica,sans-Serif" font-size="14.00" fill="#000000">value = [0.98, 0.02]</text>
<text text-anchor="middle" x="293.1807" y="-448.8" font-family="Helvetica,sans-Serif" font-size="14.00" fill="#000000">class = not_high_registrations</text>
</g>
<!-- 0&#45;&gt;1 -->
<g id="edge1" class="edge">
<title>0&#45;&gt;1</title>
<path fill="none" stroke="#000000" d="M378.442,-555.7677C367.922,-546.5424 356.6153,-536.6273 345.7853,-527.1302"/>
<polygon fill="#000000" stroke="#000000" points="347.828,-524.2664 338.0018,-520.3046 343.2127,-529.5294 347.828,-524.2664"/>
<text text-anchor="middle" x="339.6376" y="-541.0511" font-family="Helvetica,sans-Serif" font-size="14.00" fill="#000000">True</text>
</g>
<!-- 4 -->
<g id="node5" class="node">
<title>4</title>
<path fill="#399de5" fill-opacity="0.627451" stroke="#000000" d="M642.6627,-520C642.6627,-520 465.6986,-520 465.6986,-520 459.6986,-520 453.6986,-514 453.6986,-508 453.6986,-508 453.6986,-454 453.6986,-454 453.6986,-448 459.6986,-442 465.6986,-442 465.6986,-442 642.6627,-442 642.6627,-442 648.6627,-442 654.6627,-448 654.6627,-454 654.6627,-454 654.6627,-508 654.6627,-508 654.6627,-514 648.6627,-520 642.6627,-520"/>
<text text-anchor="middle" x="554.1807" y="-504.8" font-family="Helvetica,sans-Serif" font-size="14.00" fill="#000000">grade_7_ela_4s_white &lt;= 4.5</text>
<text text-anchor="middle" x="554.1807" y="-490.8" font-family="Helvetica,sans-Serif" font-size="14.00" fill="#000000">gini = 0.396</text>
<text text-anchor="middle" x="554.1807" y="-476.8" font-family="Helvetica,sans-Serif" font-size="14.00" fill="#000000">samples = 53.3%</text>
<text text-anchor="middle" x="554.1807" y="-462.8" font-family="Helvetica,sans-Serif" font-size="14.00" fill="#000000">value = [0.272, 0.728]</text>
<text text-anchor="middle" x="554.1807" y="-448.8" font-family="Helvetica,sans-Serif" font-size="14.00" fill="#000000">class = high_registrations</text>
</g>
<!-- 0&#45;&gt;4 -->
<g id="edge4" class="edge">
<title>0&#45;&gt;4</title>
<path fill="none" stroke="#000000" d="M468.2634,-555.7677C478.8644,-546.5424 490.2581,-536.6273 501.1713,-527.1302"/>
<polygon fill="#000000" stroke="#000000" points="503.7688,-529.5096 509.0148,-520.3046 499.1736,-524.2291 503.7688,-529.5096"/>
<text text-anchor="middle" x="507.2843" y="-541.0447" font-family="Helvetica,sans-Serif" font-size="14.00" fill="#000000">False</text>
</g>
<!-- 2 -->
<g id="node3" class="node">
<title>2</title>
<path fill="#399de5" fill-opacity="0.698039" stroke="#000000" d="M162.5424,-399C162.5424,-399 11.819,-399 11.819,-399 5.819,-399 -.181,-393 -.181,-387 -.181,-387 -.181,-347 -.181,-347 -.181,-341 5.819,-335 11.819,-335 11.819,-335 162.5424,-335 162.5424,-335 168.5424,-335 174.5424,-341 174.5424,-347 174.5424,-347 174.5424,-387 174.5424,-387 174.5424,-393 168.5424,-399 162.5424,-399"/>
<text text-anchor="middle" x="87.1807" y="-383.8" font-family="Helvetica,sans-Serif" font-size="14.00" fill="#000000">gini = 0.355</text>
<text text-anchor="middle" x="87.1807" y="-369.8" font-family="Helvetica,sans-Serif" font-size="14.00" fill="#000000">samples = 0.8%</text>
<text text-anchor="middle" x="87.1807" y="-355.8" font-family="Helvetica,sans-Serif" font-size="14.00" fill="#000000">value = [0.231, 0.769]</text>
<text text-anchor="middle" x="87.1807" y="-341.8" font-family="Helvetica,sans-Serif" font-size="14.00" fill="#000000">class = high_registrations</text>
</g>
<!-- 1&#45;&gt;2 -->
<g id="edge2" class="edge">
<title>1&#45;&gt;2</title>
<path fill="none" stroke="#000000" d="M222.5754,-441.9272C200.3618,-429.6342 175.9102,-416.1028 153.9703,-403.9612"/>
<polygon fill="#000000" stroke="#000000" points="155.5015,-400.8085 145.0572,-399.0288 152.1121,-406.9332 155.5015,-400.8085"/>
</g>
<!-- 3 -->
<g id="node4" class="node">
<title>3</title>
<path fill="#e58139" stroke="#000000" d="M381.7904,-399C381.7904,-399 204.5709,-399 204.5709,-399 198.5709,-399 192.5709,-393 192.5709,-387 192.5709,-387 192.5709,-347 192.5709,-347 192.5709,-341 198.5709,-335 204.5709,-335 204.5709,-335 381.7904,-335 381.7904,-335 387.7904,-335 393.7904,-341 393.7904,-347 393.7904,-347 393.7904,-387 393.7904,-387 393.7904,-393 387.7904,-399 381.7904,-399"/>
<text text-anchor="middle" x="293.1807" y="-383.8" font-family="Helvetica,sans-Serif" font-size="14.00" fill="#000000">gini = 0.0</text>
<text text-anchor="middle" x="293.1807" y="-369.8" font-family="Helvetica,sans-Serif" font-size="14.00" fill="#000000">samples = 45.8%</text>
<text text-anchor="middle" x="293.1807" y="-355.8" font-family="Helvetica,sans-Serif" font-size="14.00" fill="#000000">value = [1.0, 0.0]</text>
<text text-anchor="middle" x="293.1807" y="-341.8" font-family="Helvetica,sans-Serif" font-size="14.00" fill="#000000">class = not_high_registrations</text>
</g>
<!-- 1&#45;&gt;3 -->
<g id="edge3" class="edge">
<title>1&#45;&gt;3</title>
<path fill="none" stroke="#000000" d="M293.1807,-441.7677C293.1807,-431.3338 293.1807,-420.0174 293.1807,-409.4215"/>
<polygon fill="#000000" stroke="#000000" points="296.6808,-409.1252 293.1807,-399.1252 289.6808,-409.1252 296.6808,-409.1252"/>
</g>
<!-- 5 -->
<g id="node6" class="node">
<title>5</title>
<path fill="#e58139" fill-opacity="0.313725" stroke="#000000" d="M684.1831,-406C684.1831,-406 424.1783,-406 424.1783,-406 418.1783,-406 412.1783,-400 412.1783,-394 412.1783,-394 412.1783,-340 412.1783,-340 412.1783,-334 418.1783,-328 424.1783,-328 424.1783,-328 684.1831,-328 684.1831,-328 690.1831,-328 696.1831,-334 696.1831,-340 696.1831,-340 696.1831,-394 696.1831,-394 696.1831,-400 690.1831,-406 684.1831,-406"/>
<text text-anchor="middle" x="554.1807" y="-390.8" font-family="Helvetica,sans-Serif" font-size="14.00" fill="#000000">number_of_classes_social_studies &lt;= 14.2</text>
<text text-anchor="middle" x="554.1807" y="-376.8" font-family="Helvetica,sans-Serif" font-size="14.00" fill="#000000">gini = 0.482</text>
<text text-anchor="middle" x="554.1807" y="-362.8" font-family="Helvetica,sans-Serif" font-size="14.00" fill="#000000">samples = 21.7%</text>
<text text-anchor="middle" x="554.1807" y="-348.8" font-family="Helvetica,sans-Serif" font-size="14.00" fill="#000000">value = [0.594, 0.406]</text>
<text text-anchor="middle" x="554.1807" y="-334.8" font-family="Helvetica,sans-Serif" font-size="14.00" fill="#000000">class = not_high_registrations</text>
</g>
<!-- 4&#45;&gt;5 -->
<g id="edge5" class="edge">
<title>4&#45;&gt;5</title>
<path fill="none" stroke="#000000" d="M554.1807,-441.7677C554.1807,-433.6172 554.1807,-424.9283 554.1807,-416.4649"/>
<polygon fill="#000000" stroke="#000000" points="557.6808,-416.3046 554.1807,-406.3046 550.6808,-416.3047 557.6808,-416.3046"/>
</g>
<!-- 14 -->
<g id="node15" class="node">
<title>14</title>
<path fill="#399de5" fill-opacity="0.823529" stroke="#000000" d="M876.5424,-406C876.5424,-406 725.819,-406 725.819,-406 719.819,-406 713.819,-400 713.819,-394 713.819,-394 713.819,-340 713.819,-340 713.819,-334 719.819,-328 725.819,-328 725.819,-328 876.5424,-328 876.5424,-328 882.5424,-328 888.5424,-334 888.5424,-340 888.5424,-340 888.5424,-394 888.5424,-394 888.5424,-400 882.5424,-406 876.5424,-406"/>
<text text-anchor="middle" x="801.1807" y="-390.8" font-family="Helvetica,sans-Serif" font-size="14.00" fill="#000000">gifted &lt;= 80.5</text>
<text text-anchor="middle" x="801.1807" y="-376.8" font-family="Helvetica,sans-Serif" font-size="14.00" fill="#000000">gini = 0.254</text>
<text text-anchor="middle" x="801.1807" y="-362.8" font-family="Helvetica,sans-Serif" font-size="14.00" fill="#000000">samples = 31.7%</text>
<text text-anchor="middle" x="801.1807" y="-348.8" font-family="Helvetica,sans-Serif" font-size="14.00" fill="#000000">value = [0.149, 0.851]</text>
<text text-anchor="middle" x="801.1807" y="-334.8" font-family="Helvetica,sans-Serif" font-size="14.00" fill="#000000">class = high_registrations</text>
</g>
<!-- 4&#45;&gt;14 -->
<g id="edge14" class="edge">
<title>4&#45;&gt;14</title>
<path fill="none" stroke="#000000" d="M638.8385,-441.9272C660.9318,-431.7303 684.8715,-420.6812 707.4072,-410.2801"/>
<polygon fill="#000000" stroke="#000000" points="709.0206,-413.3903 716.6335,-406.0218 706.0871,-407.0346 709.0206,-413.3903"/>
</g>
<!-- 6 -->
<g id="node7" class="node">
<title>6</title>
<path fill="#e58139" fill-opacity="0.921569" stroke="#000000" d="M402.7904,-292C402.7904,-292 225.5709,-292 225.5709,-292 219.5709,-292 213.5709,-286 213.5709,-280 213.5709,-280 213.5709,-226 213.5709,-226 213.5709,-220 219.5709,-214 225.5709,-214 225.5709,-214 402.7904,-214 402.7904,-214 408.7904,-214 414.7904,-220 414.7904,-226 414.7904,-226 414.7904,-280 414.7904,-280 414.7904,-286 408.7904,-292 402.7904,-292"/>
<text text-anchor="middle" x="314.1807" y="-276.8" font-family="Helvetica,sans-Serif" font-size="14.00" fill="#000000">in_staten &lt;= 25.0</text>
<text text-anchor="middle" x="314.1807" y="-262.8" font-family="Helvetica,sans-Serif" font-size="14.00" fill="#000000">gini = 0.136</text>
<text text-anchor="middle" x="314.1807" y="-248.8" font-family="Helvetica,sans-Serif" font-size="14.00" fill="#000000">samples = 10.8%</text>
<text text-anchor="middle" x="314.1807" y="-234.8" font-family="Helvetica,sans-Serif" font-size="14.00" fill="#000000">value = [0.927, 0.073]</text>
<text text-anchor="middle" x="314.1807" y="-220.8" font-family="Helvetica,sans-Serif" font-size="14.00" fill="#000000">class = not_high_registrations</text>
</g>
<!-- 5&#45;&gt;6 -->
<g id="edge6" class="edge">
<title>5&#45;&gt;6</title>
<path fill="none" stroke="#000000" d="M471.9221,-327.9272C450.5503,-317.7756 427.4004,-306.7794 405.5886,-296.4188"/>
<polygon fill="#000000" stroke="#000000" points="406.8663,-293.1509 396.3318,-292.0218 403.8628,-299.4739 406.8663,-293.1509"/>
</g>
<!-- 9 -->
<g id="node10" class="node">
<title>9</title>
<path fill="#399de5" fill-opacity="0.400000" stroke="#000000" d="M667.8516,-292C667.8516,-292 444.5097,-292 444.5097,-292 438.5097,-292 432.5097,-286 432.5097,-280 432.5097,-280 432.5097,-226 432.5097,-226 432.5097,-220 438.5097,-214 444.5097,-214 444.5097,-214 667.8516,-214 667.8516,-214 673.8516,-214 679.8516,-220 679.8516,-226 679.8516,-226 679.8516,-280 679.8516,-280 679.8516,-286 673.8516,-292 667.8516,-292"/>
<text text-anchor="middle" x="556.1807" y="-276.8" font-family="Helvetica,sans-Serif" font-size="14.00" fill="#000000">number_of_students_english &lt;= 64.0</text>
<text text-anchor="middle" x="556.1807" y="-262.8" font-family="Helvetica,sans-Serif" font-size="14.00" fill="#000000">gini = 0.469</text>
<text text-anchor="middle" x="556.1807" y="-248.8" font-family="Helvetica,sans-Serif" font-size="14.00" fill="#000000">samples = 10.8%</text>
<text text-anchor="middle" x="556.1807" y="-234.8" font-family="Helvetica,sans-Serif" font-size="14.00" fill="#000000">value = [0.376, 0.624]</text>
<text text-anchor="middle" x="556.1807" y="-220.8" font-family="Helvetica,sans-Serif" font-size="14.00" fill="#000000">class = high_registrations</text>
</g>
<!-- 5&#45;&gt;9 -->
<g id="edge9" class="edge">
<title>5&#45;&gt;9</title>
<path fill="none" stroke="#000000" d="M554.869,-327.7677C555.0119,-319.6172 555.1644,-310.9283 555.3129,-302.4649"/>
<polygon fill="#000000" stroke="#000000" points="558.8151,-302.3645 555.4911,-292.3046 551.8161,-302.2417 558.8151,-302.3645"/>
</g>
<!-- 7 -->
<g id="node8" class="node">
<title>7</title>
<path fill="#e58139" stroke="#000000" d="M200.7904,-171C200.7904,-171 23.5709,-171 23.5709,-171 17.5709,-171 11.5709,-165 11.5709,-159 11.5709,-159 11.5709,-119 11.5709,-119 11.5709,-113 17.5709,-107 23.5709,-107 23.5709,-107 200.7904,-107 200.7904,-107 206.7904,-107 212.7904,-113 212.7904,-119 212.7904,-119 212.7904,-159 212.7904,-159 212.7904,-165 206.7904,-171 200.7904,-171"/>
<text text-anchor="middle" x="112.1807" y="-155.8" font-family="Helvetica,sans-Serif" font-size="14.00" fill="#000000">gini = 0.0</text>
<text text-anchor="middle" x="112.1807" y="-141.8" font-family="Helvetica,sans-Serif" font-size="14.00" fill="#000000">samples = 10.0%</text>
<text text-anchor="middle" x="112.1807" y="-127.8" font-family="Helvetica,sans-Serif" font-size="14.00" fill="#000000">value = [1.0, 0.0]</text>
<text text-anchor="middle" x="112.1807" y="-113.8" font-family="Helvetica,sans-Serif" font-size="14.00" fill="#000000">class = not_high_registrations</text>
</g>
<!-- 6&#45;&gt;7 -->
<g id="edge7" class="edge">
<title>6&#45;&gt;7</title>
<path fill="none" stroke="#000000" d="M244.9463,-213.9272C223.1641,-201.6342 199.1873,-188.1028 177.6734,-175.9612"/>
<polygon fill="#000000" stroke="#000000" points="179.3625,-172.8956 168.9334,-171.0288 175.922,-178.9918 179.3625,-172.8956"/>
</g>
<!-- 8 -->
<g id="node9" class="node">
<title>8</title>
<path fill="#399de5" fill-opacity="0.698039" stroke="#000000" d="M393.5424,-171C393.5424,-171 242.819,-171 242.819,-171 236.819,-171 230.819,-165 230.819,-159 230.819,-159 230.819,-119 230.819,-119 230.819,-113 236.819,-107 242.819,-107 242.819,-107 393.5424,-107 393.5424,-107 399.5424,-107 405.5424,-113 405.5424,-119 405.5424,-119 405.5424,-159 405.5424,-159 405.5424,-165 399.5424,-171 393.5424,-171"/>
<text text-anchor="middle" x="318.1807" y="-155.8" font-family="Helvetica,sans-Serif" font-size="14.00" fill="#000000">gini = 0.355</text>
<text text-anchor="middle" x="318.1807" y="-141.8" font-family="Helvetica,sans-Serif" font-size="14.00" fill="#000000">samples = 0.8%</text>
<text text-anchor="middle" x="318.1807" y="-127.8" font-family="Helvetica,sans-Serif" font-size="14.00" fill="#000000">value = [0.231, 0.769]</text>
<text text-anchor="middle" x="318.1807" y="-113.8" font-family="Helvetica,sans-Serif" font-size="14.00" fill="#000000">class = high_registrations</text>
</g>
<!-- 6&#45;&gt;8 -->
<g id="edge8" class="edge">
<title>6&#45;&gt;8</title>
<path fill="none" stroke="#000000" d="M315.5572,-213.7677C315.9233,-203.3338 316.3204,-192.0174 316.6922,-181.4215"/>
<polygon fill="#000000" stroke="#000000" points="320.2006,-181.2418 317.0535,-171.1252 313.2049,-180.9963 320.2006,-181.2418"/>
</g>
<!-- 10 -->
<g id="node11" class="node">
<title>10</title>
<path fill="#399de5" fill-opacity="0.607843" stroke="#000000" d="M663.7728,-178C663.7728,-178 442.5885,-178 442.5885,-178 436.5885,-178 430.5885,-172 430.5885,-166 430.5885,-166 430.5885,-112 430.5885,-112 430.5885,-106 436.5885,-100 442.5885,-100 442.5885,-100 663.7728,-100 663.7728,-100 669.7728,-100 675.7728,-106 675.7728,-112 675.7728,-112 675.7728,-166 675.7728,-166 675.7728,-172 669.7728,-178 663.7728,-178"/>
<text text-anchor="middle" x="553.1807" y="-162.8" font-family="Helvetica,sans-Serif" font-size="14.00" fill="#000000">average_class_size_science &lt;= 77.0</text>
<text text-anchor="middle" x="553.1807" y="-148.8" font-family="Helvetica,sans-Serif" font-size="14.00" fill="#000000">gini = 0.405</text>
<text text-anchor="middle" x="553.1807" y="-134.8" font-family="Helvetica,sans-Serif" font-size="14.00" fill="#000000">samples = 8.3%</text>
<text text-anchor="middle" x="553.1807" y="-120.8" font-family="Helvetica,sans-Serif" font-size="14.00" fill="#000000">value = [0.282, 0.718]</text>
<text text-anchor="middle" x="553.1807" y="-106.8" font-family="Helvetica,sans-Serif" font-size="14.00" fill="#000000">class = high_registrations</text>
</g>
<!-- 9&#45;&gt;10 -->
<g id="edge10" class="edge">
<title>9&#45;&gt;10</title>
<path fill="none" stroke="#000000" d="M555.1482,-213.7677C554.9337,-205.6172 554.7051,-196.9283 554.4824,-188.4649"/>
<polygon fill="#000000" stroke="#000000" points="557.9769,-188.2091 554.215,-178.3046 550.9794,-188.3933 557.9769,-188.2091"/>
</g>
<!-- 13 -->
<g id="node14" class="node">
<title>13</title>
<path fill="#e58139" stroke="#000000" d="M883.7904,-171C883.7904,-171 706.5709,-171 706.5709,-171 700.5709,-171 694.5709,-165 694.5709,-159 694.5709,-159 694.5709,-119 694.5709,-119 694.5709,-113 700.5709,-107 706.5709,-107 706.5709,-107 883.7904,-107 883.7904,-107 889.7904,-107 895.7904,-113 895.7904,-119 895.7904,-119 895.7904,-159 895.7904,-159 895.7904,-165 889.7904,-171 883.7904,-171"/>
<text text-anchor="middle" x="795.1807" y="-155.8" font-family="Helvetica,sans-Serif" font-size="14.00" fill="#000000">gini = 0.0</text>
<text text-anchor="middle" x="795.1807" y="-141.8" font-family="Helvetica,sans-Serif" font-size="14.00" fill="#000000">samples = 2.5%</text>
<text text-anchor="middle" x="795.1807" y="-127.8" font-family="Helvetica,sans-Serif" font-size="14.00" fill="#000000">value = [1.0, 0.0]</text>
<text text-anchor="middle" x="795.1807" y="-113.8" font-family="Helvetica,sans-Serif" font-size="14.00" fill="#000000">class = not_high_registrations</text>
</g>
<!-- 9&#45;&gt;13 -->
<g id="edge13" class="edge">
<title>9&#45;&gt;13</title>
<path fill="none" stroke="#000000" d="M638.0965,-213.9272C664.2122,-201.4703 692.9941,-187.7417 718.7084,-175.4763"/>
<polygon fill="#000000" stroke="#000000" points="720.5136,-178.4931 728.0326,-171.0288 717.5,-172.175 720.5136,-178.4931"/>
</g>
<!-- 11 -->
<g id="node12" class="node">
<title>11</title>
<path fill="#e58139" stroke="#000000" d="M558.7904,-64C558.7904,-64 381.5709,-64 381.5709,-64 375.5709,-64 369.5709,-58 369.5709,-52 369.5709,-52 369.5709,-12 369.5709,-12 369.5709,-6 375.5709,0 381.5709,0 381.5709,0 558.7904,0 558.7904,0 564.7904,0 570.7904,-6 570.7904,-12 570.7904,-12 570.7904,-52 570.7904,-52 570.7904,-58 564.7904,-64 558.7904,-64"/>
<text text-anchor="middle" x="470.1807" y="-48.8" font-family="Helvetica,sans-Serif" font-size="14.00" fill="#000000">gini = 0.0</text>
<text text-anchor="middle" x="470.1807" y="-34.8" font-family="Helvetica,sans-Serif" font-size="14.00" fill="#000000">samples = 1.2%</text>
<text text-anchor="middle" x="470.1807" y="-20.8" font-family="Helvetica,sans-Serif" font-size="14.00" fill="#000000">value = [1.0, 0.0]</text>
<text text-anchor="middle" x="470.1807" y="-6.8" font-family="Helvetica,sans-Serif" font-size="14.00" fill="#000000">class = not_high_registrations</text>
</g>
<!-- 10&#45;&gt;11 -->
<g id="edge11" class="edge">
<title>10&#45;&gt;11</title>
<path fill="none" stroke="#000000" d="M522.7458,-99.7647C515.803,-90.8144 508.4145,-81.2894 501.438,-72.2955"/>
<polygon fill="#000000" stroke="#000000" points="504.0661,-69.9731 495.1713,-64.2169 498.535,-74.2636 504.0661,-69.9731"/>
</g>
<!-- 12 -->
<g id="node13" class="node">
<title>12</title>
<path fill="#399de5" fill-opacity="0.745098" stroke="#000000" d="M751.5424,-64C751.5424,-64 600.819,-64 600.819,-64 594.819,-64 588.819,-58 588.819,-52 588.819,-52 588.819,-12 588.819,-12 588.819,-6 594.819,0 600.819,0 600.819,0 751.5424,0 751.5424,0 757.5424,0 763.5424,-6 763.5424,-12 763.5424,-12 763.5424,-52 763.5424,-52 763.5424,-58 757.5424,-64 751.5424,-64"/>
<text text-anchor="middle" x="676.1807" y="-48.8" font-family="Helvetica,sans-Serif" font-size="14.00" fill="#000000">gini = 0.323</text>
<text text-anchor="middle" x="676.1807" y="-34.8" font-family="Helvetica,sans-Serif" font-size="14.00" fill="#000000">samples = 7.1%</text>
<text text-anchor="middle" x="676.1807" y="-20.8" font-family="Helvetica,sans-Serif" font-size="14.00" fill="#000000">value = [0.203, 0.797]</text>
<text text-anchor="middle" x="676.1807" y="-6.8" font-family="Helvetica,sans-Serif" font-size="14.00" fill="#000000">class = high_registrations</text>
</g>
<!-- 10&#45;&gt;12 -->
<g id="edge12" class="edge">
<title>10&#45;&gt;12</title>
<path fill="none" stroke="#000000" d="M598.2829,-99.7647C609.0965,-90.3577 620.6398,-80.316 631.4371,-70.9232"/>
<polygon fill="#000000" stroke="#000000" points="633.8987,-73.4209 639.1463,-64.2169 629.3044,-68.1395 633.8987,-73.4209"/>
</g>
<!-- 15 -->
<g id="node16" class="node">
<title>15</title>
<path fill="#e58139" stroke="#000000" d="M888.7904,-285C888.7904,-285 711.5709,-285 711.5709,-285 705.5709,-285 699.5709,-279 699.5709,-273 699.5709,-273 699.5709,-233 699.5709,-233 699.5709,-227 705.5709,-221 711.5709,-221 711.5709,-221 888.7904,-221 888.7904,-221 894.7904,-221 900.7904,-227 900.7904,-233 900.7904,-233 900.7904,-273 900.7904,-273 900.7904,-279 894.7904,-285 888.7904,-285"/>
<text text-anchor="middle" x="800.1807" y="-269.8" font-family="Helvetica,sans-Serif" font-size="14.00" fill="#000000">gini = 0.0</text>
<text text-anchor="middle" x="800.1807" y="-255.8" font-family="Helvetica,sans-Serif" font-size="14.00" fill="#000000">samples = 2.5%</text>
<text text-anchor="middle" x="800.1807" y="-241.8" font-family="Helvetica,sans-Serif" font-size="14.00" fill="#000000">value = [1.0, 0.0]</text>
<text text-anchor="middle" x="800.1807" y="-227.8" font-family="Helvetica,sans-Serif" font-size="14.00" fill="#000000">class = not_high_registrations</text>
</g>
<!-- 14&#45;&gt;15 -->
<g id="edge15" class="edge">
<title>14&#45;&gt;15</title>
<path fill="none" stroke="#000000" d="M800.8365,-327.7677C800.745,-317.3338 800.6457,-306.0174 800.5528,-295.4215"/>
<polygon fill="#000000" stroke="#000000" points="804.0501,-295.0941 800.4625,-285.1252 797.0504,-295.1555 804.0501,-295.0941"/>
</g>
<!-- 16 -->
<g id="node17" class="node">
<title>16</title>
<path fill="#399de5" fill-opacity="0.866667" stroke="#000000" d="M1147.6104,-292C1147.6104,-292 930.751,-292 930.751,-292 924.751,-292 918.751,-286 918.751,-280 918.751,-280 918.751,-226 918.751,-226 918.751,-220 924.751,-214 930.751,-214 930.751,-214 1147.6104,-214 1147.6104,-214 1153.6104,-214 1159.6104,-220 1159.6104,-226 1159.6104,-226 1159.6104,-280 1159.6104,-280 1159.6104,-286 1153.6104,-292 1147.6104,-292"/>
<text text-anchor="middle" x="1039.1807" y="-276.8" font-family="Helvetica,sans-Serif" font-size="14.00" fill="#000000">number_of_classes_english &lt;= 22.0</text>
<text text-anchor="middle" x="1039.1807" y="-262.8" font-family="Helvetica,sans-Serif" font-size="14.00" fill="#000000">gini = 0.207</text>
<text text-anchor="middle" x="1039.1807" y="-248.8" font-family="Helvetica,sans-Serif" font-size="14.00" fill="#000000">samples = 29.2%</text>
<text text-anchor="middle" x="1039.1807" y="-234.8" font-family="Helvetica,sans-Serif" font-size="14.00" fill="#000000">value = [0.117, 0.883]</text>
<text text-anchor="middle" x="1039.1807" y="-220.8" font-family="Helvetica,sans-Serif" font-size="14.00" fill="#000000">class = high_registrations</text>
</g>
<!-- 14&#45;&gt;16 -->
<g id="edge16" class="edge">
<title>14&#45;&gt;16</title>
<path fill="none" stroke="#000000" d="M882.7538,-327.9272C903.9474,-317.7756 926.9045,-306.7794 948.5344,-296.4188"/>
<polygon fill="#000000" stroke="#000000" points="950.2073,-299.4983 957.7141,-292.0218 947.1834,-293.1852 950.2073,-299.4983"/>
</g>
<!-- 17 -->
<g id="node18" class="node">
<title>17</title>
<path fill="#399de5" fill-opacity="0.890196" stroke="#000000" d="M1135.8694,-178C1135.8694,-178 932.492,-178 932.492,-178 926.492,-178 920.492,-172 920.492,-166 920.492,-166 920.492,-112 920.492,-112 920.492,-106 926.492,-100 932.492,-100 932.492,-100 1135.8694,-100 1135.8694,-100 1141.8694,-100 1147.8694,-106 1147.8694,-112 1147.8694,-112 1147.8694,-166 1147.8694,-166 1147.8694,-172 1141.8694,-178 1135.8694,-178"/>
<text text-anchor="middle" x="1034.1807" y="-162.8" font-family="Helvetica,sans-Serif" font-size="14.00" fill="#000000">number_of_classes_math &lt;= 73.0</text>
<text text-anchor="middle" x="1034.1807" y="-148.8" font-family="Helvetica,sans-Serif" font-size="14.00" fill="#000000">gini = 0.178</text>
<text text-anchor="middle" x="1034.1807" y="-134.8" font-family="Helvetica,sans-Serif" font-size="14.00" fill="#000000">samples = 27.9%</text>
<text text-anchor="middle" x="1034.1807" y="-120.8" font-family="Helvetica,sans-Serif" font-size="14.00" fill="#000000">value = [0.099, 0.901]</text>
<text text-anchor="middle" x="1034.1807" y="-106.8" font-family="Helvetica,sans-Serif" font-size="14.00" fill="#000000">class = high_registrations</text>
</g>
<!-- 16&#45;&gt;17 -->
<g id="edge17" class="edge">
<title>16&#45;&gt;17</title>
<path fill="none" stroke="#000000" d="M1037.4599,-213.7677C1037.1025,-205.6172 1036.7214,-196.9283 1036.3502,-188.4649"/>
<polygon fill="#000000" stroke="#000000" points="1039.8395,-188.1416 1035.9046,-178.3046 1032.8462,-188.4484 1039.8395,-188.1416"/>
</g>
<!-- 20 -->
<g id="node21" class="node">
<title>20</title>
<path fill="#e58139" stroke="#000000" d="M1355.7904,-171C1355.7904,-171 1178.5709,-171 1178.5709,-171 1172.5709,-171 1166.5709,-165 1166.5709,-159 1166.5709,-159 1166.5709,-119 1166.5709,-119 1166.5709,-113 1172.5709,-107 1178.5709,-107 1178.5709,-107 1355.7904,-107 1355.7904,-107 1361.7904,-107 1367.7904,-113 1367.7904,-119 1367.7904,-119 1367.7904,-159 1367.7904,-159 1367.7904,-165 1361.7904,-171 1355.7904,-171"/>
<text text-anchor="middle" x="1267.1807" y="-155.8" font-family="Helvetica,sans-Serif" font-size="14.00" fill="#000000">gini = 0.0</text>
<text text-anchor="middle" x="1267.1807" y="-141.8" font-family="Helvetica,sans-Serif" font-size="14.00" fill="#000000">samples = 1.2%</text>
<text text-anchor="middle" x="1267.1807" y="-127.8" font-family="Helvetica,sans-Serif" font-size="14.00" fill="#000000">value = [1.0, 0.0]</text>
<text text-anchor="middle" x="1267.1807" y="-113.8" font-family="Helvetica,sans-Serif" font-size="14.00" fill="#000000">class = not_high_registrations</text>
</g>
<!-- 16&#45;&gt;20 -->
<g id="edge20" class="edge">
<title>16&#45;&gt;20</title>
<path fill="none" stroke="#000000" d="M1117.3263,-213.9272C1142.1308,-201.525 1169.4565,-187.8621 1193.9051,-175.6378"/>
<polygon fill="#000000" stroke="#000000" points="1195.7441,-178.6315 1203.1231,-171.0288 1192.6136,-172.3705 1195.7441,-178.6315"/>
</g>
<!-- 18 -->
<g id="node19" class="node">
<title>18</title>
<path fill="#399de5" fill-opacity="0.909804" stroke="#000000" d="M984.5424,-64C984.5424,-64 833.819,-64 833.819,-64 827.819,-64 821.819,-58 821.819,-52 821.819,-52 821.819,-12 821.819,-12 821.819,-6 827.819,0 833.819,0 833.819,0 984.5424,0 984.5424,0 990.5424,0 996.5424,-6 996.5424,-12 996.5424,-12 996.5424,-52 996.5424,-52 996.5424,-58 990.5424,-64 984.5424,-64"/>
<text text-anchor="middle" x="909.1807" y="-48.8" font-family="Helvetica,sans-Serif" font-size="14.00" fill="#000000">gini = 0.153</text>
<text text-anchor="middle" x="909.1807" y="-34.8" font-family="Helvetica,sans-Serif" font-size="14.00" fill="#000000">samples = 26.7%</text>
<text text-anchor="middle" x="909.1807" y="-20.8" font-family="Helvetica,sans-Serif" font-size="14.00" fill="#000000">value = [0.083, 0.917]</text>
<text text-anchor="middle" x="909.1807" y="-6.8" font-family="Helvetica,sans-Serif" font-size="14.00" fill="#000000">class = high_registrations</text>
</g>
<!-- 17&#45;&gt;18 -->
<g id="edge18" class="edge">
<title>17&#45;&gt;18</title>
<path fill="none" stroke="#000000" d="M988.3451,-99.7647C977.3556,-90.3577 965.6246,-80.316 954.6517,-70.9232"/>
<polygon fill="#000000" stroke="#000000" points="956.6901,-68.0609 946.8172,-64.2169 952.138,-73.3787 956.6901,-68.0609"/>
</g>
<!-- 19 -->
<g id="node20" class="node">
<title>19</title>
<path fill="#e58139" fill-opacity="0.333333" stroke="#000000" d="M1203.7904,-64C1203.7904,-64 1026.5709,-64 1026.5709,-64 1020.5709,-64 1014.5709,-58 1014.5709,-52 1014.5709,-52 1014.5709,-12 1014.5709,-12 1014.5709,-6 1020.5709,0 1026.5709,0 1026.5709,0 1203.7904,0 1203.7904,0 1209.7904,0 1215.7904,-6 1215.7904,-12 1215.7904,-12 1215.7904,-52 1215.7904,-52 1215.7904,-58 1209.7904,-64 1203.7904,-64"/>
<text text-anchor="middle" x="1115.1807" y="-48.8" font-family="Helvetica,sans-Serif" font-size="14.00" fill="#000000">gini = 0.48</text>
<text text-anchor="middle" x="1115.1807" y="-34.8" font-family="Helvetica,sans-Serif" font-size="14.00" fill="#000000">samples = 1.2%</text>
<text text-anchor="middle" x="1115.1807" y="-20.8" font-family="Helvetica,sans-Serif" font-size="14.00" fill="#000000">value = [0.601, 0.399]</text>
<text text-anchor="middle" x="1115.1807" y="-6.8" font-family="Helvetica,sans-Serif" font-size="14.00" fill="#000000">class = not_high_registrations</text>
</g>
<!-- 17&#45;&gt;19 -->
<g id="edge19" class="edge">
<title>17&#45;&gt;19</title>
<path fill="none" stroke="#000000" d="M1063.8821,-99.7647C1070.6576,-90.8144 1077.8681,-81.2894 1084.6766,-72.2955"/>
<polygon fill="#000000" stroke="#000000" points="1087.547,-74.3025 1090.7922,-64.2169 1081.9659,-70.0775 1087.547,-74.3025"/>
</g>
</g>
</svg>
